<?xml version="1.0" standalone="no"?>
<!DOCTYPE svg PUBLIC "-//W3C//DTD SVG 1.1//EN" "http://www.w3.org/Graphics/SVG/1.1/DTD/svg11.dtd" >
<svg xmlns="http://www.w3.org/2000/svg">
<metadata></metadata>
<defs>
<font id="italiannoregular" horiz-adv-x="602" >
<font-face units-per-em="2048" ascent="1638" descent="-410" />
<missing-glyph horiz-adv-x="346" />
<glyph horiz-adv-x="2048" />
<glyph horiz-adv-x="2048" />
<glyph unicode="&#xd;" horiz-adv-x="681" />
<glyph unicode="&#x9;" horiz-adv-x="0" />
<glyph unicode=" "  horiz-adv-x="346" />
<glyph unicode="&#x09;" horiz-adv-x="346" />
<glyph unicode="&#xa0;" horiz-adv-x="346" />
<glyph unicode="!" horiz-adv-x="604" d="M207 33q0 4 16.5 17t38 25.5t23.5 10.5q41 -25 53 -25t22.5 2.5t10.5 -6t-15 -22.5q-57 -47 -73 -47q-76 0 -76 45zM344 258q154 408 285 739q37 102 39 109q106 25 161 70h3q4 0 10 -9.5t6 -17.5t-7 -13.5t-77 -127.5q-308 -598 -365 -725q-14 -29 -51 -29q-4 0 -4 4z " />
<glyph unicode="&#x22;" horiz-adv-x="344" d="M217 885q0 8 17.5 54t60.5 235q-2 25 56.5 52t69.5 27t11 -8q-23 -68 -164 -334q-18 -35 -34.5 -34.5t-16.5 8.5zM432 885q0 8 17.5 54t60.5 235q-2 25 82 63q35 16 45 16t10 -6q0 -37 -164 -336q-16 -35 -33.5 -34.5t-17.5 8.5z" />
<glyph unicode="#" horiz-adv-x="1185" d="M23 391q0 8 30.5 41t50 30t218.5 -7q47 80 118 188q-201 0 -280 -6q-14 -2 20.5 37t48.5 37q57 -8 250 -9q160 242 246 322q2 2 13.5 2t60.5 -18l6 -4q-82 -76 -238 -304h88q115 0 195 2q154 233 246 322q2 2 14 2t61 -18l7 -4q-86 -81 -238 -302q217 4 229.5 4.5 t12.5 -1.5q0 -8 -31 -41t-45 -31q-59 4 -209 8l-121 -184q203 0 268 4q12 0 -22.5 -38t-54 -36t-230.5 6q-125 -197 -186 -301q-6 -10 -19 -10q-39 0 -32 12q29 80 157 301q-59 2 -139 2h-151q-53 -86 -189 -305q-6 -10 -20 -10q-35 0 -31 12q31 82 160 303 q-211 -4 -237.5 -6t-26.5 0zM403 455h291q64 106 117 188l-160 2h-123q-43 -63 -125 -190z" />
<glyph unicode="$" horiz-adv-x="641" d="M102 301q0 111 80 160q14 8 18.5 0t-5.5 -21q-27 -35 -27 -83t18 -85q33 -66 99 -92q55 149 133 344q-82 92 -82 183q0 90 73.5 163.5t170.5 73.5h4q25 55 43 103q8 16 37 20q10 -2 10 -6l-47 -119q109 -10 108 -104q0 -57 -37 -136q-14 -27 -34 -26q-8 2 -2 30.5t6 61.5 q0 90 -64 115l-96 -265q121 -121 121 -228t-91.5 -184t-205.5 -79q-43 -121 -66 -197q-74 -33 -77 -32.5t-3 2.5q23 72 80 231q-74 12 -119 54t-45 116zM344 166q37 0 55 4q52 10 91.5 56t39.5 115t-73 142zM420 766q0 -12 5 -35.5t46 -71.5q92 229 92 234h-10 q-53 0 -93 -39t-40 -88z" />
<glyph unicode="%" horiz-adv-x="1294" d="M145 -57q0 2 2 6q242 305 575 660.5t564 516.5q-156 -25 -289 -24.5t-241 24.5q47 -16 47 -67t-47 -130t-117 -159q-156 -174 -266 -174q-47 0 -69.5 25.5t-22.5 64.5q0 76 26.5 129t56 100.5t97 128t99.5 80.5t30 -22q0 -8 -29 -45q-119 -152 -155 -207 q-76 -129 -76 -180.5t47 -51.5q33 0 82 39q84 63 157 179q86 131 86 217t-67 108q29 29 55 21q104 -31 320.5 -31t468.5 68q25 -2 24.5 -18.5t-16.5 -41.5q-35 -51 -74 -57q-229 -158 -593.5 -521.5t-606.5 -637.5q-12 -12 -40 -12.5t-28 12.5zM768 70q0 76 26.5 129 t56.5 100t97.5 128t100 81t30.5 -23q0 -10 -76.5 -108t-97.5 -131q-37 -53 -62.5 -112.5t-25.5 -84.5q0 -47 47 -47q33 0 82 39q84 61 158 176q86 133 86 218t-66 110q-20 4 -12 12t12 8q61 0 112.5 -33.5t51.5 -85.5q0 -109 -162 -290q-156 -176 -266 -176 q-45 0 -68.5 25.5t-23.5 64.5z" />
<glyph unicode="&#x26;" horiz-adv-x="1245" d="M225 145q0 184 246 336q59 37 150 86q117 63 120 68q-23 72 -22 123q0 193 131 225q23 8 59.5 8t65.5 -31.5t29 -68.5q0 -104 -193 -240q25 -61 109 -229h274q84 0 95 9t15.5 6t0.5 -9l-37 -55q-8 -12 -19 -15q-6 -2 -149 15q-18 -84 -68 -158q84 -145 141.5 -221 t112.5 -109q61 -37 102.5 -37t85.5 28t72.5 58.5t67.5 79.5q23 31 22 -4q0 -10 -8 -20q-92 -127 -158.5 -172t-111.5 -45t-80 10q-96 31 -195 168q-41 57 -114 188q-68 -70 -152 -123q-174 -100 -309 -100q-145 0 -225 90q-57 61 -58 139zM350 188q0 -57 39 -110 q61 -61 193.5 -61.5t212.5 36.5q80 31 155 121q-80 156 -108 213q-119 -4 -183 -55q-41 -33 -36 -82q0 -31 16 -64l-16 -12q-61 104 -62.5 118.5t-1.5 22.5q0 49 29 74q41 37 172 37q29 0 63 -2q-57 135 -75 186l-136 -86q-262 -172 -262 -336zM780 815.5q0 -67.5 23 -141.5 q174 123 174 225q0 43 -45 59q-16 8 -45 8.5t-60 -34.5q-47 -49 -47 -116.5zM938 387l72 -133q32 49 61 123q-84 8 -133 10z" />
<glyph unicode="'" horiz-adv-x="217" d="M217 885q0 8 17.5 54t60.5 235q-2 25 56.5 52t69.5 27t11 -8q-23 -68 -164 -334q-18 -35 -34.5 -34.5t-16.5 8.5z" />
<glyph unicode="(" horiz-adv-x="548" d="M100 168q0 258 142 512q106 188 316 354t433 244q143 51 230 51q18 0 18 -24q0 -8 -6 -9q-178 -31 -361 -133q-389 -219 -557 -590q-86 -184 -86 -368q0 -113 47.5 -189.5t131.5 -76.5q16 0 59 10q12 2 12 -8q-2 -20 -33 -33q-61 -20 -125.5 -20.5t-119.5 40.5 q-100 72 -101 240z" />
<glyph unicode=")" horiz-adv-x="1038" d="M-92 -64.5q0 5.5 6 5.5q178 29 360 131q387 219 560 587q86 187 86 373q0 113 -48.5 188.5t-134.5 75.5q-14 0 -57 -8q-12 -2 -12 8q-2 23 46 37.5t111.5 14.5t120.5 -41q100 -70 101 -250q0 -254 -142 -500q-106 -190 -315 -355t-434 -243q-139 -51 -230 -51 q-8 0 -13 11t-5 16.5z" />
<glyph unicode="*" horiz-adv-x="1038" d="M143 725l377 135v4l-293 137l97 105l231 -203l8 4l64 340h127l-146 -340l6 -4l357 205l33 -104l-377 -140l-2 -4l295 -135l-99 -104l-231 200l-8 -4l-62 -338h-127l144 338l-7 4l-354 -200z" />
<glyph unicode="+" horiz-adv-x="667" d="M172 397q0 8 30.5 41t45.5 31q47 -8 268 -8q68 170 86 233q8 23 90 41q12 2 18.5 2t6.5 -2q-78 -162 -127 -274q181 0 328 6q4 0 4 -5t-31 -38t-45 -31q-160 8 -281 10l-2 -8q-92 -219 -102 -268q-6 -23 -90 -43q-12 -2 -17.5 -2t-5.5 2q35 66 146 319q-227 0 -274.5 -4 t-47.5 -2z" />
<glyph unicode="," horiz-adv-x="264" d="M74 -165q0 9 16 24q74 63 74 123.5t-51 72.5l8 23q29 4 51 24q33 27 35 27q43 -6 43 -53q0 -14 -4 -33q-25 -123 -146 -207q-16 -10 -21 -10t-5 9z" />
<glyph unicode="-" horiz-adv-x="509" d="M154 299q0 6 19.5 29.5t27.5 23.5l133 -8q51 0 107.5 3t56.5 1t-7.5 -14t-20.5 -25.5t-21.5 -13.5t-30.5 4q-35 4 -88 4z" />
<glyph unicode="." horiz-adv-x="305" d="M68 35q0 6 36.5 28.5t39.5 22.5t23.5 -12.5t33 -12.5t21.5 2.5t9 -7t-12 -21.5q-58 -47 -76 -47q-76 0 -75 47z" />
<glyph unicode="/" horiz-adv-x="772" d="M0 -51q227 317 552.5 727.5t475.5 572.5q6 8 41 8q61 0 100 -8q-139 -147 -544.5 -634.5t-536.5 -667.5q-8 -14 -31 -15q-55 0 -57 17z" />
<glyph unicode="0" horiz-adv-x="753" d="M131 213q0 158 94 346q59 117 129 180q59 53 129 109.5t170 56.5q172 0 172 -241q0 -109 -43 -234q-63 -180 -168 -276q-20 -18 -66 -53t-71 -60q-60 -57 -164 -57q-182 0 -182 229zM236 270q0 -156 92 -200q35 -18 78 -18.5t92 36.5q84 61 149 211q78 160 78 316.5 t-102 199.5q-33 12 -77 12t-95 -45q-82 -68 -134.5 -190.5t-66.5 -198.5t-14 -123z" />
<glyph unicode="1" horiz-adv-x="497" d="M16 -4l19 27q12 -2 33.5 -2.5t74 13t78.5 60.5q25 45 113 318.5t93 306.5t1 41q-8 16 -25.5 16t-56.5 -29.5t-53 -41.5q-33 -29 -41 -31l16 55q17 10 70 41t88 54.5t100.5 63.5t72.5 40t7 -9.5t-8 -21.5q-66 -129 -176 -494q-88 -264 -88 -321q0 -37 46 -49.5t66.5 -12.5 h24.5l-22 -24q-41 12 -193 16q-53 -2 -240 -16z" />
<glyph unicode="2" horiz-adv-x="677" d="M43 -10q160 137 274.5 247.5t126 121t41 38t44 43t41 43t42 46t36 45t32.5 44.5q49 80 49 125t-29.5 81t-107.5 36h-8q-74 0 -128.5 -34.5t-75 -103.5t-15.5 -83l-43 -23q41 135 47 215q0 25 45 43q61 25 179 25t163 -20q78 -35 78 -117q0 -37 -17.5 -93.5t-75 -120 t-130 -125t-124.5 -99.5q-127 -102 -260 -203q-35 -27 -34.5 -40t160 -13t212.5 30q29 16 70 61.5t53 69.5l19 -6q-49 -66 -77 -125t-53.5 -78.5t-66.5 -19.5l-178 6q-49 0 -289 -16z" />
<glyph unicode="3" horiz-adv-x="643" d="M68 34.5q0 10.5 12 35t45 149.5l45 19q-4 -6 -17.5 -52.5t-13.5 -77t31 -59.5t104 -29q129 0 207 75t109 177q14 31 14 47.5t-3 35t-10 40t-31.5 35.5t-46 22.5t-56.5 14.5q-49 6 -125 6l26 33q281 47 328 196q8 27 8 56.5t-28.5 65.5t-108.5 36h-8q-113 0 -172 -78 q-23 -33 -37 -81t-10 -62l-43 -23q41 135 47 215q0 25 45 43q61 25 179 25t165 -20q70 -33 70 -115q0 -25 -9 -47q-43 -137 -237 -203q-47 -16 -12 -20q2 -3 20 -5q150 -14 150 -137q0 -33 -26 -105.5t-67 -121.5q-119 -143 -356 -143q-115 0 -168 30q-20 12 -20 22.5z" />
<glyph unicode="4" horiz-adv-x="825" d="M94 258q0 2 21.5 16.5t49.5 41t73 75.5q33 35 179 188.5t181 194.5q61 80 82.5 86t73 29.5t64.5 23.5t13 -5t-2 -11q-66 -127 -178 -494l-22 -67q82 6 104 22q33 16 77 60.5t56 68.5l21 -6q-61 -82 -86 -135q-43 -86 -119 -86l-74 2q-37 -131 -42 -162.5t11.5 -48 t40.5 -22.5q47 -8 84 -9l-24 -24q-37 10 -193 16q-53 -2 -237 -16l18 27q10 -2 31.5 -2.5t74 13t75 52.5t69.5 178h-117q-127 -4 -213 -9t-89 -2t-3 5zM250 346.5q0 -10.5 22 -12.5q90 -6 155 -6t110 2l94 291q35 106 35 132.5t-7 30.5q-39 -24 -397 -413q-12 -14 -12 -24.5 z" />
<glyph unicode="5" horiz-adv-x="677" d="M68 34.5q0 10.5 12 35t45 149.5l45 19q-4 -6 -17.5 -52.5t-13.5 -77t31 -59.5t104 -29q119 0 201 74t113 172q16 53 16 99.5t-26 76.5q-41 49 -135.5 49.5t-184.5 -30.5q-20 -6 -21 -3t25 52q43 90 150 360q8 21 22 21l39 -4q279 4 385 4q8 0 8 -14.5t-23.5 -55.5 t-41 -84t-35.5 -78l-29 7l47 92q10 16 11 28q0 31 -68 31q-193 0 -233.5 -4t-55.5 -29q-74 -143 -135 -278q74 39 186 39q227 0 228 -158q0 -45 -19 -104q-43 -135 -141 -213q-117 -88 -301 -88q-111 0 -168 30q-20 12 -20 22.5z" />
<glyph unicode="6" horiz-adv-x="688" d="M127 199q0 100 60.5 268t196.5 307t321 139q84 0 131 -24q18 -6 18 -19q0 -6 -13.5 -30.5t-39.5 -130.5l-37 -17q4 8 16.5 48t12.5 64.5t-25 48.5t-80 24q-100 0 -197.5 -85t-143.5 -180.5t-60 -154.5q25 18 68.5 41.5t56.5 31.5q45 27 139 27t140 -53t46 -121 q0 -80 -42 -162t-105 -125q-16 -10 -56 -31.5t-63 -37.5q-49 -35 -145 -35q-199 0 -199 207zM229 209q0 -125 107 -156q31 -10 69.5 -10t83.5 25q86 47 119 141q20 59 21 100q0 133 -82 174q-31 14 -67 14.5t-81 -16.5q-88 -39 -129 -129q-41 -72 -41 -143z" />
<glyph unicode="7" horiz-adv-x="634" d="M102 4q2 18 312.5 379.5t314.5 400.5q4 25 -36 29t-236 4q-88 0 -115 -51q-35 -55 -45 -92l-37 -6q63 115 78 149q31 74 57 74q147 0 426 -4l70 10q8 0 8 -4t-6 -10q-168 -188 -414 -496.5t-256 -386.5q-45 10 -78.5 5t-42.5 -1z" />
<glyph unicode="8" horiz-adv-x="718" d="M82 111q0 25 8 53q47 147 283 278q-98 66 -99 156q0 33 15 72q31 104 130 177t195.5 73t139.5 -48q28 -30 28 -75q0 -152 -258 -308q76 -57 99.5 -97t23.5 -74.5t-14 -77.5q-37 -117 -142.5 -187.5t-211 -70.5t-151.5 39.5t-46 89.5zM168 117q0 -31 12 -51 q23 -45 97.5 -45.5t139 46t91.5 123.5q12 37 12 71t-22.5 72t-94.5 89q-236 -152 -235 -305zM397 721q-20 -41 2 -107q14 -45 97 -104q67 43 130.5 107.5t77 106.5t13.5 69.5t-17 52.5q-31 41 -98 41t-124.5 -46t-80.5 -120z" />
<glyph unicode="9" horiz-adv-x="688" d="M88 36.5q0 8.5 16.5 43.5t36.5 117l37 16q-6 -6 -17 -46t-11 -64.5t24.5 -48t79.5 -23.5q100 0 196.5 85t146.5 190.5t58 142.5q-25 -18 -69.5 -42t-55.5 -30q-45 -27 -139 -27q-127 0 -168 90q-20 45 -20 95.5t20 103.5q41 111 129 170q20 14 59.5 35.5t57.5 34.5 q51 35 143.5 34.5t141.5 -41.5q59 -47 59 -157q0 -104 -49 -244q-70 -199 -206 -339t-322 -140q-82 0 -132 24q-16 12 -16 20.5zM301 573q0 -129 115 -157q27 -6 63.5 -6t95 32.5t97.5 110.5q41 73 41 145q0 123 -107 154q-33 10 -70.5 10t-78.5 -22q-70 -35 -115 -123 q-41 -74 -41 -144z" />
<glyph unicode=":" horiz-adv-x="315" d="M121 35q0 4 16.5 17.5t38 25.5t23.5 12q41 -25 63.5 -24.5t22.5 -7t-34 -38t-56 -30.5q-74 4 -74 45zM268 547q-2 2 15.5 16.5t39 26.5t23.5 12q41 -25 53.5 -24.5t22.5 2.5t10 -9q-2 -8 -14 -20q-57 -47 -76 -47h-2q-33 0 -72 43z" />
<glyph unicode=";" horiz-adv-x="315" d="M76 -238q6 27 20 39q78 66 94 150q4 25 -10 45t-41 27l8 22q25 2 86 51q43 -6 43 -53q0 -14 -4 -33q-35 -156 -196 -248zM295 547q0 10 38 32.5t42 22.5q41 -25 53 -24.5t21.5 2.5t9.5 -9q-2 -8 -13 -20q-57 -47 -75 -47h-2q-74 0 -74 43z" />
<glyph unicode="&#x3c;" horiz-adv-x="600" d="M180 410l10 34q221 121 478 312q0 -27 -13 -47q-31 -39 -151.5 -124t-186.5 -124q-12 -8 -4 -17q104 -72 177 -145.5t73 -112.5q0 -10 -6 -18q-55 -53 -59 -62h-13q2 23 -36.5 77.5t-117.5 122t-151 104.5z" />
<glyph unicode="=" horiz-adv-x="704" d="M121 258q0 8 30.5 41t45.5 31q63 -8 209.5 -8t324.5 6q12 0 -22.5 -37t-42 -37t-72 5t-219 5t-204.5 -4t-50 -2zM172 506q0 6 30 39t44 33l231 -11q68 0 188.5 4t120.5 2q0 -8 -30.5 -39.5t-37.5 -31.5t-71.5 5t-173.5 5z" />
<glyph unicode="&#x3e;" horiz-adv-x="600" d="M127 176q0 4 3 12.5t14.5 20.5t22.5 22.5t30 24.5q106 88 295 188q12 8 2 17q-49 39 -133.5 124t-98.5 124q-2 20 8 47q164 -182 344 -312l-4 -34q-209 -90 -381 -242q-45 -37 -53 -62h-12q0 8 -18.5 37t-18.5 33z" />
<glyph unicode="?" horiz-adv-x="888" d="M207 33v2t16 14q45 37 62 37l61 -25q4 0 14.5 2.5t10.5 -3v-9.5t-36 -33.5t-44 -29.5q-47 0 -84 45zM319 348q-8 115 111 209l340 270q82 66 82 155t-78 122q-33 16 -65 16q-111 0 -179 -49q-29 -20 -64.5 -80.5t-47.5 -111.5q0 -20 -21 -29q-23 -8 -20 10q37 162 37 203 t51 67q49 23 242 37q31 2 59 2q219 0 219 -163q0 -106 -58.5 -175t-125 -104t-134 -66.5t-134 -76.5t-115.5 -120t-49 -124t22 -74l-22 -30q-45 47 -50 112z" />
<glyph unicode="@" horiz-adv-x="1421" d="M38 406.5q1 134.5 71 269.5q133 260 444 364q139 45 289 45q334 0 481 -167q72 -80 72 -191v-25q-16 -231 -203.5 -344.5t-470.5 -113.5q-49 0 -49 41q0 65 80 196q-215 -233 -336 -233q-37 0 -37 43v16q14 115 96 246q160 258 332 258l235 -2q10 0 11 -8 q0 -16 -23.5 -16.5t-68.5 -65.5q-53 -86 -118 -212t-65 -177q0 -39 66 -39q147 0 290.5 119.5t143.5 296t-122 254t-298 77.5h-8q-176 0 -337 -84t-263.5 -237.5t-103.5 -327.5t114 -279.5t287 -105.5q340 0 543 217q25 25 38 25q20 0 21 -27q0 -33 -35 -63 q-119 -106 -249 -144.5t-274.5 -38.5t-231.5 22.5t-161.5 69t-117.5 127t-42 215zM481 340q0 -25 19 -25q59 0 211.5 182t152.5 248q0 39 -51 39t-115.5 -60t-140.5 -192.5t-76 -191.5z" />
<glyph unicode="A" horiz-adv-x="1572" d="M41 72q0 12 2 36.5t27.5 78t31.5 53.5q16 2 7 -17q-27 -59 -27 -92t10 -49q27 -47 105 -47q244 0 718 442q-233 12 -272 12q-156 0 -207 -51q-37 -37 -37 -98q0 -16 4 -31q-31 6 -42 12.5t-15 20.5q2 16 -2 25.5t5 21.5t12.5 19.5t16.5 16.5t20.5 14t22.5 13.5t23.5 11.5 t24.5 11q170 74 307 74q84 0 209 -6q135 131 301 306t328 218h-113q-459 0 -497 -195q-2 -14 -2 -37.5t24 -37.5q10 -6 -8.5 -14.5t-24.5 -4.5q-20 14 -33.5 53t-13.5 54q0 63 36 106t95.5 64.5t108.5 35t129 19.5q113 6 215 6h223q4 0 2 -2q150 68 189 68q49 -1 49 -19 q0 -10 -29 -10t-39 -2q-33 -6 -72 -49q-68 -68 -213 -323t-235 -455q0 -2 -2 -7q-74 -170 -74 -232t41 -62q55 0 136 75.5t147 167.5q10 16 19 8t-3 -24q-29 -39 -37 -49.5t-26.5 -34t-32.5 -38.5t-35.5 -36.5t-40.5 -38.5q-87 -71 -152 -71h-2q-118 0 -118 122 q0 96 76.5 259t206.5 400.5t194 321.5q-51 -2 -148.5 -57t-159 -118.5t-176 -190.5t-163.5 -180q123 -4 197.5 -4t138.5 30q-12 -33 -46 -60.5t-90.5 -30.5t-128 -3t-135.5 2q-508 -524 -813 -524q-66 0 -101.5 34.5t-35.5 88.5z" />
<glyph unicode="B" horiz-adv-x="1150" d="M-4 -27q0 4 4 7q84 14 131 98q72 121 234.5 419t210 395t55.5 114q27 49 121 81q-31 3 -107 3h-3q-76 0 -228 -29q-213 -39 -213 -170q0 -49 32 -70q10 -4 -1 -11t-23 0t-39 46q-41 61 -41 106.5t23.5 79t93.5 48.5q100 24 218 25q5 0 9 -1h6l305 2q31 -2 66 -2l82 2 q66 0 135 -22q131 -41 131 -179q0 -92 -70 -182q-96 -119 -249 -153q-4 0 -4.5 -6.5t4 -6.5t19.5 -2t32.5 -5t30.5 -5q76 -16 121.5 -63.5t45.5 -120.5q0 -125 -92 -224q-170 -182 -446 -182q-186 0 -307 64q-31 16 -62 16t-49 -9t-61 -36q-66 -39 -90.5 -39t-24.5 12z M301 125q0 -45 49 -82q84 -49 174 -49q100 0 212 43t193 140t81 224q0 80 -59.5 114t-123.5 34q-125 0 -264 -37q-2 0 -2 4q0 10 28.5 33.5t41 36t28.5 12.5q88 0 141.5 6t110 27.5t94 67.5t61.5 109.5t24 104.5q0 150 -123 168q-18 2 -45 2q-106 0 -145.5 -48t-79.5 -116.5 t-66.5 -118.5t-68.5 -135t-113.5 -224.5t-137.5 -270.5q-10 -23 -10 -45z" />
<glyph unicode="C" horiz-adv-x="1079" d="M78 276q0 193 106.5 376.5t274.5 310.5q214 161 462 161h3q113 0 195.5 -40t82.5 -105q0 -29 -38 -91.5t-48 -90.5q-4 -14 -31 -17q-8 2 -8 6q35 57 35 129t-22 113q-39 66 -152 66q-209 0 -408 -168q-145 -129 -238 -308.5t-93 -319.5t64.5 -211t164.5 -85q53 -8 104 -8 q156 0 295 55q223 86 359 254q20 25 20 0q0 -14 -16 -37q-129 -172 -346 -262q-154 -63 -326 -63q-279 0 -385 147q-55 76 -55 188z" />
<glyph unicode="D" horiz-adv-x="1282" d="M-4 -27l4 7l12 4q0 -2 15 2q66 23 104 92q59 98 361 653l139 275q31 51 121 81h-50q-135 0 -289.5 -27.5t-191.5 -96.5q-20 -37 -20 -67t9 -46t18.5 -23.5t9.5 -9.5q0 -12 -16.5 -12t-47.5 47q-43 68 -43 117q0 145 336 145l407 10q285 0 416 -100q49 -39 80 -106.5 t31 -157.5q0 -209 -139 -418q-250 -375 -701 -375q-158 0 -278 62q-37 18 -68 18t-98.5 -43t-94 -43t-26.5 12zM299 113.5q0 -27.5 51 -70.5q61 -47 187 -47q227 0 408 130t269 343q62 157 62 297q0 139 -96 227t-256 88q-109 0 -146 -42t-83 -121.5t-74.5 -136 t-63.5 -128.5q-23 -49 -125 -246.5t-117.5 -231.5t-15.5 -61.5z" />
<glyph unicode="E" horiz-adv-x="978" d="M70 90q0 31 30 92q59 106 170 299t175.5 308.5t115.5 195.5t127 98q-264 -14 -343 -46.5t-100.5 -70.5t-21.5 -81t33 -64q8 -4 -2 -11t-22.5 0t-38.5 46q-39 59 -39 113q0 127 233 143q39 2 105 2h10l469 8q170 0 203 -28q18 -14 18 -28.5t-4 -31.5q-8 -59 -60 -135 q-14 -27 -34 -25q-8 0 -1 30t7 67q0 86 -66 106q-29 8 -92 8t-136 -4t-101 -41q-63 -90 -250 -411q-8 -23 16 -23l238 -4q162 0 217 29q18 12 16 -4q-2 -33 -37 -58.5t-61 -25.5l-322 8q-49 0 -80.5 -2t-41 -19.5t-31.5 -62.5q-141 -262 -142 -338q0 -109 205 -113 q428 0 629 256q8 12 12 -3t-2 -23t-45 -58.5t-53.5 -66t-42.5 -47.5q-53 -55 -113 -74q-86 -25 -275.5 -25t-311 12.5t-150.5 55.5q-10 16 -10 47z" />
<glyph unicode="F" horiz-adv-x="1191" d="M66 184v33q0 33 18 33q4 0 4 -4l-2 -49q0 -94 46 -145.5t122 -51.5q127 0 264 147q86 92 301 537q106 221 123 254q51 98 182 152q-86 0 -239 -11q-406 -27 -406 -182q0 -72 62 -100q12 -6 -3.5 -14.5t-33 1t-53.5 52.5q-56 69 -56 117q0 47 35 85q35 39 135 58 q142 26 317 26h13q520 0 592 -4q119 -6 119 -65q0 -35 -18.5 -71t-31 -57.5t-14.5 -25.5q-10 -23 -33 -25q-12 -2 -8 13q14 49 15 88q0 82 -66 102q-39 16 -86 17q-174 0 -244 -54q-37 -29 -66.5 -75.5t-45 -72.5t-37 -70t-31.5 -66.5t-32.5 -69.5t-26.5 -57q-8 -23 16 -23 l289 -2q66 0 87 -12t6 -43t-36.5 -64.5t-27 -49t-27.5 -17.5q-4 2 -4 4q27 60 27 93q0 34 -29 34h-320q-18 0 -27.5 -16.5t-48 -95.5t-56 -111.5t-50.5 -94.5q-172 -309 -391 -309q-68 0 -125 37q-98 68 -98 225z" />
<glyph unicode="G" horiz-adv-x="1179" d="M66 -422q0 31 24 31q4 0 4 -4l-4 -51q0 -92 58.5 -142.5t152.5 -50.5q246 0 434 238q143 178 236 409q12 35 41.5 113t42.5 106q-82 -121 -244 -207t-313 -86h-9q-170 0 -290.5 88.5t-120.5 267.5t106.5 362.5t274.5 310.5q214 161 462 161h3q113 0 195.5 -40t82.5 -105 q0 -29 -38 -91.5t-48 -90.5q-4 -14 -31 -17q-8 2 -8 6q35 57 35 129t-22 113q-39 66 -152 66q-209 0 -408 -168q-145 -129 -238 -308.5t-93 -335t85 -232.5t214 -77h6q231 0 395 155t244 392h-211q-262 0 -262 -121q0 -33 10 -53l-18 -12q-55 92 -55.5 102t-0.5 21 q0 47 25 69q48 39 157 39l164 -6h389l-22 -24q-84 0 -121 -48q-23 -31 -38 -62.5t-22.5 -45.5t-16.5 -43t-12 -40t-14.5 -45t-18.5 -60.5t-33.5 -126t-41 -146.5t-45 -130t-59.5 -136q-135 -240 -352 -326q-98 -39 -182 -39t-164 36t-113 106q-20 39 -20 84v65z" />
<glyph unicode="H" horiz-adv-x="1576" d="M10 221v33q0 33 19 33q4 0 4 -4l-2 -50q0 -94 46 -144t122 -50q129 0 264 145q68 74 188 310q-178 -4 -268 -19q-18 -4 -8 12q37 51 119 78l190 -6q35 66 166 326q33 68 93.5 127t123.5 71q-35 -2 -108.5 -3t-118.5 -3q-301 -14 -355 -114q-16 -35 -16 -56q0 -63 29 -86 q8 -6 -2.5 -12t-22.5 1t-39 46q-41 61 -41 106.5t22.5 79t92.5 48.5q102 24 220 24h9h197.5t228.5 6t38 -1t-4 -16t-13 -9q-123 -12 -219 -183q-72 -129 -189 -356l94 -4h301q90 0 146 24q217 414 299 519q12 4 72 32q115 55 174 56q25 0 32 -15v-4q0 -10 -28.5 -10 t-38.5 -2q-35 -6 -74 -49q-88 -88 -281.5 -447.5t-224.5 -486.5q-8 -35 -8 -64q0 -84 78 -84q53 0 127 39q96 55 229 232q14 18 15 -4q0 -14 -7 -25q-125 -180 -249 -248q-65 -35 -146 -35q-1 1 -2 1q-82 0 -129 65q-29 43 -29 83t25 105.5t143 298.5q-49 -45 -94 -45 q-2 0 -45 4.5t-311 4.5h-99q-160 -319 -245 -412q-119 -125 -267 -125q-66 0 -122 37q-100 68 -101 225z" />
<glyph unicode="I" horiz-adv-x="747" d="M20 240q0 27 9 28q14 2 14 -16q0 -94 46 -144.5t122 -50.5q162 0 330 226q33 41 55 70.5t54 85t44.5 76t46 89t38.5 78.5t43 92t40 86q66 137 164 203h-61q-319 0 -320 -148q0 -35 25 -88l-21 -16q-80 139 -81 151.5t-1 20.5q0 59 31 88q53 47 182 47l209 -8l328 2 l-27 -31q-63 0 -126.5 -11t-126 -59t-105.5 -120l-19 -31q-14 -33 -67 -162t-90 -213t-102.5 -194.5t-123 -173t-136.5 -100t-147.5 -37.5t-123.5 36q-102 70 -103 224z" />
<glyph unicode="J" horiz-adv-x="415" d="M-455 -80q0 31 10.5 30t10.5 -18q0 -94 47 -144t123 -50q127 0 262 145q174 190 317 516q8 18 78 189q143 356 187.5 405t142.5 88q-90 -8 -107 -8q-319 -8 -383 -100q-18 -29 -18 -55q0 -90 66 -121q14 -6 -1.5 -13.5t-23.5 -5.5q-27 14 -63 58q-58 67 -58 116 q0 48 32 84q32 37 128 54q138 26 310 26h13h9h221h4t2 -4q0 -6 -33 -27q-119 -6 -229 -231q-68 -133 -169 -371.5t-110.5 -259t-35 -76t-39 -80t-38 -69.5t-44.5 -72q-66 -90 -113 -140t-126 -89t-146.5 -39t-122.5 39q-102 68 -103 223z" />
<glyph unicode="K" horiz-adv-x="1146" d="M-4 -37q0 2 2 4q88 72 160 195q166 281 401 708q98 172 240 211q-178 -4 -283 -28q-156 -35 -156 -158q0 -53 29 -74q8 -6 -2 -12t-22.5 1t-38.5 46q-41 61 -41 106.5t22.5 79t91.5 48.5q102 24 220 24h10h105.5t130 5t32.5 5q18 0 23 -22q0 -20 -19 -21q-12 4 -24 4 q-92 0 -187 -165q-229 -387 -448 -826q-4 -8 -15.5 -36.5t-21.5 -41t-26.5 -9.5t-35 3t-47 -5t-54.5 -27.5t-36 -22.5t-10 8zM467 520q176 162 479 350q225 152 329.5 196t168 44t100.5 -14.5t59.5 -33t22.5 -34.5t-6 -16t-31.5 24.5t-77 24.5t-182.5 -53 q-219 -94 -366.5 -175t-415.5 -276q25 -68 84 -176.5t127.5 -191.5t119 -105.5t73 -22.5t48 4.5t75.5 42t83 74.5t76 94q16 23 22 7q0 -12 -10 -29q-106 -147 -183 -210.5t-155 -63.5q-111 0 -215 137q-100 131 -188 323q-35 76 -37 80z" />
<glyph unicode="L" horiz-adv-x="1120" d="M6 6.5q0 22.5 21 32.5l14 4q80 4 151.5 71.5t102.5 141.5l188 471q63 162 146 264q98 127 272 127q92 0 151.5 -31.5t59.5 -82.5q0 -12 -4 -30t-37 -65t-42 -73.5t-22.5 -20.5t-5.5 19q37 53 37 112.5t-25.5 104.5t-84.5 45q-131 0 -205 -138l-379 -698 q-88 -160 -170 -192h429t175.5 1t48 3t46 4t36.5 6q63 14 64 82q0 51 -55 78q-14 6 -5 14q4 2 8 2q21 0 65 -52q54 -64 63.5 -89t9.5 -49.5t-31 -50t-141.5 -25.5t-388.5 20q-317 20 -351 21q-80 0 -131 -47q-2 -2 -6 -2t-4 22.5z" />
<glyph unicode="M" horiz-adv-x="1699" d="M12 240q0 27 8 28q14 2 15 -16q0 -94 46 -144.5t122 -50.5q131 0 262 146q111 119 203 280q27 47 39 68.5t38.5 77t34.5 71.5q63 137 74 160q76 164 213 205l2 2h-113q-326 0 -389 -94q-18 -29 -18 -55q0 -90 65 -121q14 -6 -1 -14.5t-32.5 1t-56.5 52.5 q-55 66 -55 114.5t31.5 85.5t130.5 54q136 26 308 26h13h9h221q16 2 -3.5 -14.5t-23.5 -16.5q-98 -20 -98 -175.5t16 -618.5v-12l711 749q82 86 140 126t116 40q20 0 20 -3t-8 -13q-10 -10 -20 -11q-86 0 -174 -143q-121 -199 -264.5 -516.5t-143.5 -427.5q0 -57 39 -57 q14 0 56 17t82 54t66.5 68t43 51t32 40.5t17.5 22.5q12 18 16 3t-3 -24t-25.5 -33.5t-34 -43t-41 -48.5t-47.5 -52q-103 -96 -185 -96q-123 0 -123 122q0 66 29 139.5t41 106.5q23 55 88 185q102 217 162 315l-590 -623q-6 -39 -53 -57q-20 -8 -72 -70q-2 -2 -8 -2t-11 4 t-3 7q53 68 55 186l12 596q0 90 49 149q-82 -61 -122 -145q-16 -33 -89 -215q-164 -406 -315 -567q-51 -55 -131 -94t-147.5 -39t-122.5 36q-102 70 -103 224z" />
<glyph unicode="N" horiz-adv-x="1476" d="M12 240q0 31 10.5 29.5t10.5 -17.5q0 -96 52 -159.5t128 -63.5q147 0 272 131q109 117 166.5 234.5t77.5 166.5q39 82 125 299q33 80 88 137.5t127 69.5h-113q-326 0 -391 -94q-18 -29 -18 -54.5t6 -46.5q18 -55 61 -75q12 -6 -2 -13.5t-22 -5.5q-27 14 -66 58 q-55 66 -55 114.5t31.5 85.5t130.5 54q136 26 306 26h13h8h248q18 2 -8.5 -30.5t-32.5 -31.5t-19 1t-50 -8.5t-54 -20.5q12 -150 83 -394.5t155 -455.5q25 61 121 325.5t180 451t156 253.5q53 49 123.5 49t68.5 -55l-2 -74l-18 -4q2 23 -18.5 36t-41.5 13q-96 0 -231 -278 q-115 -231 -197 -442t-96 -244t-14 -57q0 -29 8 -64t-12.5 -50.5t-40 -23.5t-44 -32.5t-32.5 -36.5q-4 -6 -8 -6q-12 0 -15 12q23 31 41 84q-43 233 -192 694q-49 156 -68 215q-20 -14 -51 -106q-74 -219 -188 -451q-76 -156 -172 -272q-45 -55 -136.5 -94t-160 -39 t-125.5 36q-102 66 -103 224z" />
<glyph unicode="O" horiz-adv-x="1216" d="M14 299q0 197 138 414q70 115 166 208t237 153.5t301 60.5q244 0 357.5 -79t113.5 -245q0 -213 -114.5 -406.5t-312.5 -311.5t-425 -118q-461 0 -461 324zM123 281q0 -274 336 -275q201 0 378 127t275 316.5t98 379.5q0 274 -350 275q-174 0 -349 -139.5t-281.5 -332 t-106.5 -351.5z" />
<glyph unicode="P" horiz-adv-x="1107" d="M2 -27q0 4 4 7q84 14 131 98q92 156 161 283.5t148.5 273t108.5 203t51.5 105.5t30.5 63q27 49 121 81q-31 3 -107 3h-3q-76 0 -228 -29q-213 -39 -213 -170q0 -49 33 -70q10 -4 -1.5 -11t-22.5 0t-38 46q-41 63 -41 113q0 127 238 143q39 2 112 2l304 2q32 -2 65 -2 l82 2q66 0 136.5 -22.5t103.5 -71.5q45 -68 45 -119q0 -141 -129 -260q-82 -76 -172 -111q-131 -49 -310 -49q-39 0 -69 4q-16 2 6 22.5t33 18.5q29 -4 61.5 -4t90 7.5t128 29t134 83t89 133t25.5 117.5t-16 89q-41 100 -160 100q-113 0 -152 -48t-78.5 -116.5t-66.5 -118.5 t-69 -135t-52 -105.5t-30.5 -58.5t-41 -75t-47 -88t-47 -96t-39.5 -86q-30 -67 -30 -100q0 -12 4 -19q8 -18 -25 -6q-4 0 -12 3t-13.5 4t-14.5 2t-15 1q-23 0 -76 -33q-76 -47 -101.5 -47t-25.5 12z" />
<glyph unicode="Q" horiz-adv-x="1226" d="M14 299q0 197 138 414q70 115 166 208t237 153.5t301 60.5q244 0 357.5 -79t113.5 -245q0 -276 -187.5 -508.5t-467.5 -302.5q57 -119 266 -408q58 -79 152 -79h2q82 0 194 79q45 31 66.5 55.5t21.5 -5.5q0 -4 -19.5 -28t-84.5 -69q-145 -98 -252 -98l-47 4 q-80 14 -125 88q-170 274 -262 443q-52 -7 -109 -7q-461 0 -461 324zM123 281q0 -274 336 -275q201 0 378 127t275 316.5t98 379.5q0 274 -350 275q-174 0 -349 -139.5t-281.5 -332t-106.5 -351.5z" />
<glyph unicode="R" horiz-adv-x="1232" d="M2 -27q0 4 4 7q84 14 131 98q92 156 161 283.5t148.5 273t108.5 203t51.5 105.5t30.5 63q27 49 121 81q-31 3 -107 3h-3q-76 0 -228 -29q-213 -39 -213 -170q0 -49 33 -70q10 -4 -1.5 -11t-22.5 0t-38 46q-41 63 -41 113q0 127 238 143q39 2 112 2l304 2q32 -2 65 -2 l82 2q66 0 135 -22q137 -43 137 -203q0 -113 -50 -178.5t-116.5 -113.5t-185.5 -76.5t-231 -35.5q84 -186 213 -346q78 -94 168 -94q137 0 307 223q16 23 16 -2q0 -16 -12 -32q-207 -285 -352 -285l-70 14q-156 68 -328 445q-35 76 -37 79q39 53 55.5 53.5t71 0.5t97.5 2 t106.5 14t95.5 39q88 66 134 199q18 51 18 97t-16 89q-41 100 -160 100q-113 0 -152 -48t-78.5 -116.5t-66.5 -118.5t-69 -135t-52 -105.5t-30.5 -58.5t-41 -75t-47 -88t-47 -96t-39.5 -86q-30 -67 -30 -100q0 -12 4 -19q8 -18 -25 -6q-4 0 -12 3t-13.5 4t-14.5 2t-15 1 q-23 0 -76 -33q-76 -47 -101.5 -47t-25.5 12z" />
<glyph unicode="S" horiz-adv-x="923" d="M78 212.5q0 35.5 23.5 99t74.5 102.5q2 2 8 -4q12 -10 4 -19q-39 -45 -38 -102q0 -76 47 -146q47 -66 131 -108q92 -47 190 -47q145 0 215 106q39 63 39 132t-24.5 137.5t-101.5 196.5t-85 142q-41 78 -41 155t48 144.5t124 106.5q84 43 174 43q127 0 207 -88 q10 -18 10 -52t-14 -59q-53 -78 -68 -129q-29 -18 -38 -6q36 74 36 137v41q0 37 -28 58q-59 55 -158 55q-135 0 -197 -94q-37 -54 -37 -102q1 -49 25 -105q24 -55 133 -190.5t135.5 -205t26.5 -116.5q0 -131 -106 -229q-68 -63 -159 -99.5t-199.5 -36.5t-217 55.5 t-135.5 168.5q-4 23 -4 58.5z" />
<glyph unicode="T" horiz-adv-x="884" d="M25 954q0 117 135 148q125 31 197.5 31t104.5 -4.5t132 -10.5q119 -8 371 -28.5t350 -20.5q182 0 217 43q2 4 9 4t7 -12t-20 -45q-39 -61 -76 -68q-16 -4 -70.5 -4t-226.5 23q-90 -16 -151 -113q-55 -88 -88 -159.5t-78 -180.5q-164 -391 -277 -514q-117 -123 -258 -123 q-68 0 -123 39q-102 68 -102 221q0 68 20 68q4 0 4 -4l-2 -51q0 -94 46.5 -144.5t121.5 -50.5q129 0 264 145q53 59 110.5 164t93.5 189t88.5 216t72.5 179q37 84 184 127l-342 35q-207 10 -272.5 10t-182 -24.5t-157.5 -86.5q-16 -27 -16 -51q0 -80 65 -113q12 -8 -2 -14 t-31.5 3t-56.5 54q-61 72 -61 123z" />
<glyph unicode="U" horiz-adv-x="1251" d="M14 989q0 129 215 129l209 -8q289 2 471 2l-26 -31q-100 0 -146 -57q-115 -150 -261 -461t-165 -465v-12q0 -59 74 -59l80 24q111 55 231 180q295 307 504 768q4 6 15.5 36t21.5 42.5t27.5 9t35 -3.5t46 4.5t75.5 47.5q6 4 11.5 4t13.5 -6v-7q-72 -57 -143 -168 q-305 -463 -377 -686q-29 -92 -29 -151q0 -109 94 -109q18 0 39 4q68 10 184 127q63 57 146 162q4 -7 4 -16q0 -24 -29 -60q-119 -147 -248 -231q-78 -51 -141 -51q-80 0 -110 49q-23 31 -23 63.5t6 79.5q12 92 76 250q4 6 4 8q-57 -68 -191.5 -197.5t-195.5 -174.5 q-113 -78 -213 -78h-6q-63 0 -88 26.5t-25 57.5q0 72 185 424q111 211 139 284.5t49 132.5q41 106 41 191h-180q-322 0 -322 -148q0 -53 27 -88l-23 -16q-2 4 -28 47q-51 82 -52.5 100.5t-1.5 30.5z" />
<glyph unicode="V" horiz-adv-x="1101" d="M29 957.5v25.5q0 61 30 88q54 47 183 47l209 -8q289 2 471 2l-43 -53h-144q49 -92 49 -359q0 -309 -86 -620q324 459 576 717q127 131 233.5 220t214 143t187.5 54q84 0 98 -38q8 -23 8 -39.5t-8 -41t-15 -42t-19.5 -42t-17.5 -35.5t-26 -7l-6 6q16 55 16 94q0 86 -81 86 q-106 0 -291 -151q-303 -242 -623 -648q-184 -231 -272 -383q-2 -4 -6 -18t-10.5 -20.5t-42 -20.5t-50 -14t-22.5 6q-18 8 6 57q96 317 127 571t31 369t-11 158l-268 2q-322 0 -322 -148q0 -53 27 -88l-22 -16q-2 4 -29 47q-51 82 -51 99.5z" />
<glyph unicode="W" horiz-adv-x="1826" d="M29 957.5v25.5q0 61 30 88q54 47 183 47l209 -8q289 2 471 2l-43 -53q-41 0 -122 1t-122 1q76 -51 112.5 -148.5t36.5 -179.5l-2 -108v-58q-10 -223 -84 -487q23 33 138 205q303 449 559 692q41 39 115.5 79t142.5 40q63 0 98 -21l-12 -22q-16 4 -48 4t-95.5 -29 t-123 -88t-100.5 -183t-50 -235.5t-20.5 -244t-29.5 -197.5q444 629 842 960q80 68 184 121t184 53q84 0 98 -38q9 -25 9 -41q-1 -15 -9 -39t-15 -42t-19.5 -42.5t-17.5 -35.5t-25 -7l-6 6q16 55 16 94q0 74 -62 84q-12 2 -43 2q-78 0 -262 -151q-319 -254 -628 -648 q-184 -231 -273 -383q-2 -4 -6 -18t-10 -20.5t-42 -20.5t-50.5 -14t-22.5 6q-18 8 6 57l35 115q25 88 40 246.5t43 289.5t87 222q-39 -20 -186 -207l-56 -70t-59 -74q-139 -178 -332 -512q-2 -4 -6 -18t-9 -19.5t-52 -20.5t-61.5 -15t-22.5 6q-18 8 6 57q96 317 127 563 q8 158 8 214.5t-23.5 158.5t-76.5 164h-156q-322 0 -322 -148q0 -53 27 -88l-22 -16q-2 4 -29 47q-51 82 -51 99.5z" />
<glyph unicode="X" horiz-adv-x="1110" d="M-227 -18q-1 56 25 116q25 59 35 59t3 -18q-23 -59 -22 -96q0 -74 77 -74q133 0 316.5 155t392.5 380q-41 231 -41 369.5t33 187.5q-55 2 -133 2t-121 -4q-233 -23 -234 -144q0 -53 27 -88l-22 -16q-2 4 -29 47q-51 82 -51 99.5v25.5q0 61 30 88q53 47 183 47l209 -8 q289 2 471 2l-43 -53l-261 2q-2 -25 -2 -53q0 -160 60 -420q414 420 600 522q94 49 170 49q59 0 84.5 -20.5t30 -33.5t4.5 -24.5t-4.5 -33t-11.5 -40t-22.5 -48t-20.5 -40t-21 -8.5q-8 0 -6 7q12 51 12 88q0 80 -61 90q-10 2 -23 2q-53 0 -115 -33q-160 -78 -602 -508 l-6 -12q23 -86 78 -234.5t102 -214.5q31 -44 70 -44q19 0 41 11q68 35 112 84q47 53 111 134q20 25 20 -1q0 -22 -36 -69q-94 -117 -211 -188q-53 -33 -103 -33q-66 0 -112 61q-82 113 -146 410q-27 -29 -99.5 -108t-104 -112.5t-95 -97t-103.5 -95.5t-93 -73 q-94 -70 -197 -92q-20 -4 -50 -4t-62.5 23.5t-32.5 79.5z" />
<glyph unicode="Y" horiz-adv-x="925" d="M16 182q0 31 10.5 29t10.5 -18q0 -92 47 -143.5t123 -51.5q209 0 430 317q-25 -14 -38 -14t-19 2q-8 4 4 37q72 217 72 425q0 211 -76 298h-50q-319 0 -319 -148q0 -35 25 -88l-21 -16q-80 139 -81 151.5t-1 20.5q0 59 31 88q53 47 182 47l209 -8q145 2 328 2l-43 -53 q-72 0 -224 4q129 -84 129 -354q0 -133 -47 -295q14 20 154.5 231t210.5 291t103.5 114.5t100 77.5t119.5 43q57 0 84 -55q11 -24 11 -45q0 -16 -4 -29q-8 -35 -27 -71q-4 -10 -11 -8t-4 15t3 36.5t-13 50.5q-18 43 -65 43q-98 0 -256 -182q-178 -207 -322 -447 q-43 -72 -136 -234.5t-186 -243.5t-220 -81q-66 0 -121 37q-102 66 -103 225z" />
<glyph unicode="Z" horiz-adv-x="927" d="M-59 -63q0 33 16 59q186 299 1135 1063q-258 4 -345.5 4t-130.5 -4q-231 -23 -231 -144q0 -35 25 -88l-21 -16q-2 4 -29 47q-51 82 -52 100.5t-1 30.5q0 131 230 131l202 -4h478q2 -2 2 -10q0 -25 -13 -31q-528 -380 -989 -878q117 59 229 59q41 0 88.5 -11.5t116 -64.5 t118.5 -106.5t156.5 -182.5t230.5 -232t202 -103q106 0 127 79q6 20 6 41q0 59 -43 121q-20 35 -55 70q-2 4 10 13t16 7q123 -78 123 -188q0 -51 -33 -105q-70 -113 -198 -114q-176 0 -410 262q-31 37 -85 101.5t-68.5 81t-47 55t-46 53t-42 45.5t-44 44t-43 32.5 t-48.5 27.5q-51 20 -104 21q-98 0 -184.5 -57.5t-108 -136.5t-37.5 -100.5t-34.5 -21.5t-43 13.5t-24.5 36.5z" />
<glyph unicode="[" horiz-adv-x="741" d="M18 -213q20 43 260 571.5t361 774.5l117 75q59 12 121.5 12.5t140.5 -4t131 -4.5l-96 -73q-78 18 -128.5 18t-76 -2t-55 -19.5t-41.5 -41.5q-123 -219 -369 -721t-254 -520q123 -2 266.5 -2.5t225.5 8.5l-111 -64q-84 -8 -492 -8z" />
<glyph unicode="\" horiz-adv-x="1019" d="M2 1221q0 6 51 18t62.5 12t13.5 -2q186 -221 571 -794q72 -106 207 -305q137 -201 137 -210.5t-29.5 -9.5t-39.5 13q-53 68 -436 581z" />
<glyph unicode="]" horiz-adv-x="813" d="M-113 -213l99 74q82 -18 132 -18.5t72.5 1.5t52 19.5t44.5 42.5q100 178 620 1241q-422 0 -489 -6l108 63q84 8 492 8q-457 -1018 -621 -1345l-116 -76q-59 -12 -122 -12t-140.5 4t-131.5 4z" />
<glyph unicode="^" horiz-adv-x="641" d="M174 530.5q0 14.5 116 95.5t138 85l10 -4q57 -63 197 -170l8 -15l-10 -12q-35 2 -121 55t-115 84q-193 -133 -208 -133t-15 14.5z" />
<glyph unicode="_" horiz-adv-x="1732" />
<glyph unicode="`" horiz-adv-x="456" d="M100.5 881.5q-0.5 27.5 5.5 27.5q18 0 106.5 -76.5t162.5 -132.5l2 -14q-25 4 -141.5 73t-126.5 87q-8 8 -8.5 35.5z" />
<glyph unicode="a" d="M6 41q0 10 2 14q14 117 94 246q160 258 332 258h236q10 0 10 -8q0 -16 -18 -16q-29 0 -72 -67t-113.5 -205t-70.5 -174t28 -36q47 0 131 82q45 47 67.5 74t30 35t48.5 59q4 -4 4 -16.5t-29 -50.5q-182 -242 -338 -242q-49 0 -49 39q0 72 80 196q-72 -76 -164 -154.5 t-172 -78.5q-37 0 -37 45zM111 90q0 -24 15 -24h1q59 0 212 181t153 247q0 39 -51 39l-1 -1q-52 0 -116 -59t-138.5 -191t-74.5 -192z" />
<glyph unicode="b" horiz-adv-x="550" d="M55 37q0 39 109 287q-18 -20 -48 -53t-39 -46.5t-11.5 6t14 39t63.5 74.5t70 82q201 422 432 649q182 178 318 178q33 0 57 -17t27 -50v-60q0 -8 -9.5 -8t-9.5 4q0 56 -82 56h-3q-79 0 -149 -30t-129 -87t-105 -118.5t-91 -151t-73.5 -153t-66.5 -154.5t-57 -132 q-2 -8 2 -8q213 213 314 213q35 0 35 -49v-19q-25 -170 -165.5 -338.5t-301.5 -168.5q-100 0 -101 55zM143 57q0 -41 51.5 -41t122.5 72q53 49 129 180.5t76 192.5q0 26 -17 26h-1q-31 0 -100.5 -65.5t-112.5 -116.5q-147 -168 -148 -248z" />
<glyph unicode="c" horiz-adv-x="487" d="M16 71.5q0 26.5 13 67.5q23 84 98.5 193.5t177.5 169.5q107 67 182 68q1 0 2 -1q41 0 62.5 -17t21.5 -44q0 -61 -26 -111q-10 -23 -27 -20q-6 2 -3 14t3 36t-12 56q-18 51 -54 51q-1 0 -1 1q-35 0 -78 -24t-64 -46q-125 -129 -176 -293q-14 -53 -14 -87t29 -42 q16 -6 37 -6q37 -1 89 17q84 28 177.5 104.5t140.5 142.5q4 -4 4 -15.5t-20 -41.5q-70 -96 -189 -178q-125 -82 -221 -82t-124 30.5t-28 57z" />
<glyph unicode="d" d="M6 41q0 10 2 14q14 115 95 246t178 205q66 53 157 53h94q33 55 105 191.5t102 187.5q186 315 412 315q29 0 50.5 -16t19.5 -45l-4 -74q-1 -8 -11 -8q-2 0 -6 4q-8 49 -61 70q-25 8 -53.5 8t-63.5 -12q-98 -35 -217 -246t-246 -492q-2 -2 -49 -100q-104 -217 -104 -253 t24 -36q45 0 140.5 93.5t140.5 156.5q4 -4 4 -17.5t-29 -49.5q-182 -242 -338 -242q-49 0 -49 39q0 72 80 196q-72 -76 -150 -143q-111 -90 -186 -90q-37 0 -37 45zM111 90q0 -24 15 -24h1q59 0 212 181t153 247q0 39 -51 39l-1 -1q-52 0 -116 -59t-138.5 -191t-74.5 -192z " />
<glyph unicode="e" horiz-adv-x="509" d="M129 338q53 84 151.5 156.5t188.5 72.5t90 -86q0 -90 -70.5 -136t-159.5 -73.5t-157 -27.5q-31 -80 -31 -148.5t84 -68.5q31 0 80 18q80 27 166 102.5t141 147.5q6 -6 6 -16.5t-14 -30.5q-76 -104 -188.5 -184t-229.5 -80q-151 0 -151 109q0 89 94 245zM188 285h46t81 14 q117 35 152 131q10 29 10 54.5t-16.5 36.5t-28.5 11q-133 -1 -244 -247z" />
<glyph unicode="f" horiz-adv-x="372" d="M-616 -337q0 9 2 20.5t4 20.5t8 27.5t8 25.5t11.5 30t12.5 31t10 10t11 -4t-5 -27.5t-9 -50.5t10 -53q41 -98 188 -111h19q55 0 106 29q139 72 267 309q61 115 135 316.5t100 269.5h-47q-2 0 -45 -6l-4 2q4 20 39 38.5t57 18.5h25q215 500 393 619q103 73 228 73h3 q27 0 49.5 -16t20.5 -45l-6 -74q0 -4 -6 -6t-8 2q-9 50 -62 68q-31 12 -61.5 12t-59.5 -6q-106 -23 -217 -225q-29 -51 -180 -402h147q41 0 60 4q0 -14 -31 -26q-57 -31 -170 -31h-29q-121 -303 -163.5 -396.5t-81.5 -163t-97.5 -147.5t-119 -133t-140.5 -92t-162 -37 q-170 0 -206 103q-4 14 -4 23z" />
<glyph unicode="g" horiz-adv-x="542" d="M-578 -422q0 31 27 31q4 0 4 -4l-4 -51q0 -92 58.5 -142.5t141.5 -50.5t149.5 27.5t117.5 60.5t98 84t82 89t77 111.5t63.5 108.5t60.5 125t50 116t50 124t43 110q-68 -111 -191.5 -216t-201.5 -105q-37 0 -37 45v14q14 115 96 248q160 256 332 256h236q10 0 10 -8 q0 -16 -18 -16q-45 0 -74 -54q-55 -88 -193.5 -410.5t-193.5 -419.5t-148 -194q-164 -174 -354 -174q-82 0 -154 37q-127 68 -127 223v35zM113 90q0 -24 17 -24h1q59 0 211 181t152 247q0 39 -50 39q-1 0 -2 -1q-51 0 -114.5 -59t-139 -191t-75.5 -192z" />
<glyph unicode="h" d="M-12 8q0 4 9 25.5t82 200t122 282.5q184 410 393 594q170 150 364 150q113 0 121 -89q2 -10 2 -28.5t-8 -46.5q-2 -8 -10 -9h-10q-2 0 0 6.5t2 14.5q0 80 -121 80q-184 0 -340 -135q-188 -166 -334 -551q-20 -55 -57 -155.5t-51 -137.5q276 366 413 366q41 0 41 -32 q0 -27 -26 -76q-45 -72 -114 -207t-69 -167t12.5 -39t28.5 -3q35 8 58 27q86 66 198 205l2 -11q-2 -29 -29.5 -64.5t-78.5 -92.5q-111 -127 -215 -127q-80 0 -80 53q0 20 7 39.5t94 201t87 191.5t-8 10q-23 0 -94 -59q-92 -86 -175 -193.5t-118 -205.5q-8 -23 -53 -28 t-45 11z" />
<glyph unicode="i" horiz-adv-x="393" d="M66 233q0 16 10 29q145 180 223 293q102 14 122.5 32.5t22.5 2.5q0 -8 -9 -19.5t-167 -308.5q-69 -129 -69 -179q0 -30 28 -30q63 0 230 197l45 51q4 -4 4 -10q0 -38 -125 -170q-39 -43 -107.5 -85t-125 -42t-56.5 39q0 37 21 82q14 33 163 348q-109 -117 -196 -234 q-14 -20 -14 4zM446 836q0 25 28 43t49.5 18t33.5 -17.5t12 -27.5q0 -37 -26.5 -53.5t-46.5 -16.5q-49 0 -50 54z" />
<glyph unicode="j" horiz-adv-x="276" d="M-858 -422q0 31 24 31q7 0 7 -4l-7 -51q0 -92 58.5 -142.5t141.5 -50.5t161 31q174 76 297 239q203 276 360 789q18 63 23 67q27 29 76 52q52 25 81 25h2q29 -1 35 -13q0 -16 -18 -16q-43 0 -70 -39q-49 -70 -276 -613q-57 -133 -112.5 -231t-147.5 -194.5t-183.5 -135.5 t-173.5 -39t-153 37q-125 66 -125 223v35zM353 842q7 24 28.5 37.5t33 13.5t25 -1.5t25.5 -17.5q8 -12 8 -22t-5 -26.5t-28 -31.5q-19 -12 -40 -12h-6q-23 2 -36 20q-8 11 -8 24q0 8 3 16z" />
<glyph unicode="k" horiz-adv-x="663" d="M16 8q0 4 8.5 21.5t53.5 121t62.5 141.5t56.5 125t65 140q104 199 146 272q96 174 231 299t266 125q33 0 58.5 -17t25.5 -50v-60q0 -8 -9 -8t-9 4q0 56 -78 56h-3q-76 0 -148 -30q-74 -30 -127.5 -87t-112.5 -150q-135 -209 -320 -702q47 63 88 110q-4 35 13.5 57.5 t36 42t24.5 27.5l6 -34q160 163 248 163q45 0 45 -34q0 -27 -16.5 -55.5t-21.5 -38t-8 -13.5t-9 -1t-6 7q0 39 -63.5 39t-162.5 -102q43 -236 84 -299q16 -27 60 -27q78 2 270 250q8 -10 5 -23.5t-30 -46.5q-100 -127 -188 -196q-55 -45 -110.5 -45t-88.5 35q-35 47 -82 262 q-125 -158 -159 -262q-10 -25 -55.5 -28t-45.5 11z" />
<glyph unicode="l" horiz-adv-x="438" d="M66 233q0 16 15 36t62 75t70 82q29 53 117 231q186 377 278 500q23 8 89.5 53t107.5 45q51 0 51 -65q0 -109 -178 -350q-152 -211 -422 -455q-53 -98 -80 -211q-6 -23 -6 -43q0 -80 76 -80q12 0 26 2q86 16 275 250q4 -4 4 -17.5t-53.5 -80t-79.5 -92.5 q-117 -117 -211 -117q-106 0 -107 102q0 82 66 226l-86 -95q-14 -20 -14 4zM291 467q202 168 352 393q145 238 145 334q0 25 -18 25q-68 0 -266 -357q-168 -303 -213 -395z" />
<glyph unicode="m" horiz-adv-x="962" d="M66 233q0 16 10 29q145 180 223 293q102 14 118.5 28.5t20.5 14.5t5 -8t-12 -23.5t-161 -290.5q12 14 109 123q47 49 121 105q84 61 145 61q39 0 39 -30q0 -27 -22 -60l-93 -172l97 96q47 49 120 105q84 61 137.5 61t53.5 -35q0 -27 -35 -78t-105.5 -189t-70.5 -174 t29 -36q37 0 103.5 60.5t115.5 118t55 69.5q4 -6 4 -18.5t-26 -46.5q-172 -231 -326 -244q-25 -2 -43.5 9t-18.5 30.5t10.5 51.5t20.5 54q43 96 81 168t79 162q20 43 -29 16q-131 -82 -272 -278q-72 -96 -92 -170q-29 -25 -50.5 -16.5t-21.5 42t68 181.5q70 135 110 225 q20 43 -28 16q-68 -43 -161 -137t-136 -192q-18 -43 -66 -158q-12 0 -48 -13.5t-42 -13.5q-8 0 1 19.5t34.5 81t62.5 155.5q72 180 96 238q-109 -117 -196 -234q-14 -20 -14 4z" />
<glyph unicode="n" horiz-adv-x="675" d="M66 233q0 16 10 29q145 180 223 293q102 14 118.5 28.5t20.5 14.5t5 -8t-12 -23.5t-161 -290.5q98 129 230 228q84 61 137 61t53 -35q0 -27 -33.5 -75.5t-101.5 -185t-68 -172.5t30 -36t78 38t86 81t101 121q4 -6 4 -18.5t-26 -46.5q-104 -141 -176 -196.5t-129 -55.5 q-66 0 -66 64.5t66.5 196.5t107.5 222q20 43 -28 16q-233 -145 -363 -487q-12 0 -48 -13.5t-42 -13.5q-8 0 1 19.5t34.5 81t62.5 155.5q72 180 96 238q-109 -117 -196 -234q-14 -20 -14 4z" />
<glyph unicode="o" horiz-adv-x="542" d="M18 68q0 117 113 272q72 102 174 162q107 67 182 67h2q82 0 82 -80q0 -111 -110 -270q-43 -57 -78 -90q135 0 250 152q10 10 10 -7.5t-8 -27.5q-104 -145 -238 -146q-18 0 -37 2q-115 -106 -258 -106q-84 0 -84 72zM115 101.5q0 -70.5 37 -70.5q29 0 63.5 19.5t54.5 39.5 q63 68 133 183.5t70 213.5q0 49 -37 50q-12 0 -47 -13.5t-87 -68t-99 -138.5q-88 -145 -88 -215.5z" />
<glyph unicode="p" horiz-adv-x="522" d="M-858 -422q0 31 24 31q7 0 7 -4l-7 -51q0 -92 58.5 -142.5t141.5 -50.5t161 31q309 133 520 643q25 59 72 180q104 270 164 387q125 254 278 254q20 0 36.5 -11t14.5 -32l-4 -57q0 -6 -5 -6t-5 2q0 43 -51 43q-203 0 -336 -484q2 2 37 38t67.5 64.5t77.5 65.5 q92 78 162 78q35 0 35 -45q0 -10 -2 -23q-23 -168 -163 -337.5t-302 -169.5q-43 0 -49 6q-182 -539 -500 -674q-72 -31 -154 -31t-153 37q-125 66 -125 223v35zM111 57q0 -41 51 -41t123 72q53 49 128.5 181.5t75.5 191.5q0 26 -17 26h-1q-31 0 -103.5 -66.5t-113.5 -115.5 q-143 -170 -143 -248z" />
<glyph unicode="q" horiz-adv-x="571" d="M-16 -680.5q0 21.5 187 446t212 463.5q-61 -63 -157.5 -148t-178.5 -85q-37 0 -37 45v14q14 117 96 246t179 205q66 53 153 53h236q10 0 10 -8q0 -16 -18 -16q-31 0 -74 -68q-102 -160 -229 -417t-191 -435q127 211 506 686q4 -6 4 -18.5t-20 -40.5 q-152 -199 -221.5 -293t-182.5 -277.5t-152 -308.5q-8 -23 -52 -44t-57 -21t-13 21.5zM113 90q0 -24 17 -24h1q59 0 211 181t152 247q0 39 -50 39q-1 0 -2 -1q-51 0 -114.5 -59t-139 -191t-75.5 -192z" />
<glyph unicode="r" horiz-adv-x="557" d="M66 233q0 16 10 29q145 180 223 293q102 14 118.5 28.5t20.5 14.5t5 -8t-11 -22.5t-137 -243.5q55 84 140 165.5t145.5 81.5t78.5 -51q9 -11 9 -25q0 -11 -4 -29q-4 -20 -9 -32q-23 -51 -32 -61q-6 -10 -21 -13q-2 2 -4 5q4 23 4 41q0 94 -58.5 94t-166 -124t-162.5 -265 l-43 -115q-12 0 -49 -12.5t-39 -12.5q-10 0 -1 18.5t34.5 80t62.5 155.5q72 180 96 238q-109 -117 -196 -234q-14 -20 -14 4z" />
<glyph unicode="s" horiz-adv-x="475" d="M-2 94q0 23 12.5 58.5t34.5 54.5q12 6 14 -4q-14 -43 -14 -72q0 -63 88 -117q25 -16 53 -16q100 0 130 36t30 87t-65 121q-78 86 -78 145q-25 -35 -103 -131q-16 -23 -18 -4.5t16 41.5q35 37 160 223q53 59 127 59q115 0 117 -79q0 -41 -29 -99q-10 -20 -24 -20 q-8 0 -4 14.5t4 38t-13 51.5q-20 55 -66 55q-1 0 -2 1q-45 0 -72 -28q-28 -28 -28 -50.5t3 -37.5t23.5 -42t49.5 -55q78 -82 78 -144.5t-33 -109.5q-70 -102 -196 -103q-66 0 -123 27q-72 33 -72 100z" />
<glyph unicode="t" horiz-adv-x="405" d="M66 233q0 16 10 29q139 174 192 244q-18 0 -110 -10q-20 0 15.5 32.5t49.5 32.5h15l63 -2q80 109 160 285q18 2 57 23.5t56.5 39t22.5 17.5t5 -5.5t-16.5 -23.5t-81 -121.5t-117.5 -214.5h166q20 0 22.5 -6t-13 -11t-29 -9.5t-58.5 -8.5q-100 -6 -123.5 -39.5 t-81.5 -173.5q-62 -152 -62 -214q0 -44 30 -44q63 0 233 197l39 49q4 -6 4 -19.5t-22 -43.5q-188 -242 -340 -242q-49 0 -50 39q0 49 80 209l111 247q-209 -254 -213 -260q-14 -20 -14 4z" />
<glyph unicode="u" horiz-adv-x="804" d="M66 233q0 16 10 29q84 113 136 171.5t57 64.5t22.5 21.5t27.5 21.5q40 25 86 25h1q46 0 47 -36q0 -27 -35 -78t-105.5 -189t-70.5 -174t28 -36q39 0 123 80q129 123 266 385q18 33 25 33h29q66 0 102 18q2 2 6 2t4 -8q1 -16 -26 -24q-61 -18 -140 -189.5t-79 -234 t30 -62.5q37 0 121 66q90 70 162 164q16 18 18 20q5 -9 5 -19q0 -2 -1 -6q-2 -14 -26 -42q-180 -242 -338 -242q-72 0 -72 55q0 37 26.5 114t49.5 120q-201 -289 -371 -289q-49 0 -49 39q0 49 80 209q18 37 49 100.5t42 83.5t11 29.5t-6 9.5q-14 0 -79.5 -59.5 t-151.5 -176.5q-14 -20 -14 4z" />
<glyph unicode="v" d="M66 233q0 16 10 29q115 154 190 273q74 10 101 34q8 9 13 9h1q4 0 4 -8t-6 -17q-37 -55 -84 -209t-47 -226.5t35 -72.5q82 0 213 209q94 154 98 242q0 47 -16 57q-16 6 -11.5 12t11 6t18.5 -4t22 -8q35 -16 43.5 -33.5t8.5 -42.5q0 -74 -131.5 -245.5t-192.5 -210.5 q-62 -39 -106 -39q-27 0 -47 16q-25 21 -25 74v8q0 176 61 340q-29 -41 -88 -118t-61 -79q-14 -20 -14 4z" />
<glyph unicode="w" horiz-adv-x="1024" d="M66 233q0 16 10 29q115 154 190 273q74 10 96.5 30.5t22.5 3.5q0 -8 -6 -16q-37 -55 -84 -209t-47 -226.5t37 -72.5q76 0 217 225q31 49 80 145.5t63 119.5q72 10 95.5 30.5t23.5 3.5q2 -8 -4 -16q-37 -53 -80 -208t-43 -227.5t43 -72.5q20 0 57 16.5t76 55.5 q137 139 197 301q23 60 23 101q0 25 -9 42q-10 16 -25.5 21.5t-4 13.5t18.5 8h11q82 -20 82 -90q0 -31 -16 -72q-45 -117 -142.5 -237.5t-203.5 -182.5q-62 -36 -106 -36q-31 0 -54 18q-31 23 -31 82q4 127 41 264q-10 -16 -28.5 -50t-28.5 -50q-127 -184 -199 -227 q-55 -35 -96 -35q-28 0 -49 16q-25 21 -25 74v8q0 176 61 340q-29 -41 -88 -118t-61 -79q-14 -20 -14 4z" />
<glyph unicode="x" horiz-adv-x="612" d="M-25 5q0 9 13 20q156 123 248 198q-37 176 -37 219t47 71t78.5 28t33.5 -13q-6 -8 -16 -10q-45 0 -45 -106q0 -53 14 -123q57 49 299 237q25 17 60 17l63 -2q6 0 6 -15.5t-8 -15.5q-123 -6 -412 -252q12 -78 46 -141.5t68 -63.5t71 60.5t53 119.5q6 20 14.5 11.5 t6.5 -21.5q-18 -86 -67.5 -160.5t-113.5 -74.5q-63 0 -110 90q-33 63 -45 115q-45 -39 -109.5 -109t-80 -85t-46.5 -9t-31 15z" />
<glyph unicode="y" horiz-adv-x="704" d="M-420 -422q0 31 25 31q4 0 4 -4l-4 -51q0 -92 58 -142.5t141 -50.5t161 31q174 76 296 240.5t224 402.5q49 121 105 284q-96 -131 -176 -208q-121 -117 -230 -117q-49 0 -49 39q0 49 80 209q18 37 49 100.5t42 83.5t11 29.5t-6 9.5q-14 0 -79.5 -59.5t-151.5 -176.5 q-12 -18 -14.5 1.5t10.5 31.5q84 113 136 171.5t57 64.5t22.5 21.5t27.5 21.5q40 25 86 25h1q47 -1 47 -36q0 -27 -35 -78t-105.5 -189t-70.5 -174t28 -36q39 0 133.5 90t173 224.5t95.5 142.5q88 45 108.5 49t40 4t19.5 -14t-19 -14q-43 0 -69 -39q-49 -70 -277 -613 q-57 -135 -112.5 -232t-147.5 -194q-166 -174 -356 -174q-82 0 -154 37q-125 66 -125 223v35z" />
<glyph unicode="z" horiz-adv-x="479" d="M-33 -29.5q0 11.5 14.5 35t92.5 106.5t120 118.5t145 128t169 145.5q-283 0 -313 -43q-18 -23 -31.5 -19t0.5 18.5t53 82.5q6 -4 66 -4l272 6q16 0 28.5 -23.5t14.5 -42.5q-266 -190 -299 -217t-199 -170q51 27 93.5 27t62.5 -3t59 -32q41 -31 123 -109 q151 -151 227 -151h1q37 4 56 19.5t11 37.5q-12 45 -49 72q-8 8 4 13t19 1q59 -29 59 -98q0 -33 -22.5 -66.5t-57.5 -48t-61 -14.5l-39 6q-35 10 -81 55t-99.5 105.5t-70 80t-21.5 25.5t-19 22.5t-22.5 21.5t-21.5 15.5t-24 14.5q-25 10 -61.5 10t-78.5 -28.5t-52 -64.5 t-19 -50q-16 -23 -32.5 -8.5t-16.5 26z" />
<glyph unicode="{" horiz-adv-x="724" d="M160 467l26 27q125 2 202 50t130 156q6 10 49 121q113 283 404 326q37 2 71.5 2t46 -13.5t11.5 -21.5q-27 6 -51.5 6t-73.5 -4q-123 -10 -195 -125q-25 -43 -63.5 -137t-78.5 -165t-95 -111q-90 -74 -211 -103q133 -31 133 -125q0 -74 -70.5 -217t-77 -198.5t7 -75 t31.5 -23.5q37 -12 77 -12t65 4q-16 -35 -37 -35q-205 0 -256 55q-20 23 -21 43q0 86 74 234q86 166 86 226.5t-45 84t-139 31.5z" />
<glyph unicode="|" horiz-adv-x="745" d="M131 0q20 57 479 1182h97q-27 -37 -257.5 -605.5t-232.5 -576.5h-86z" />
<glyph unicode="}" horiz-adv-x="841" d="M-72 -176q27 -6 52 -6q195 0 268 129q25 43 63 137q86 207 174 278q96 72 211 101q-133 31 -133 125q0 74 71 217t77 198.5t-6.5 75t-30.5 23.5q-39 12 -78 12t-66 -4q20 37 37 37q203 0 256 -57q20 -23 21 -43q0 -84 -74 -232q-84 -168 -84 -227.5t45 -84t139 -32.5 l-26 -27q-127 -2 -204 -50t-128 -156q-18 -39 -51 -121q-113 -285 -404 -324q-43 -6 -74.5 -6t-41 11.5t-13.5 25.5z" />
<glyph unicode="~" horiz-adv-x="567" d="M154 686q76 63 110.5 63.5t110.5 -28.5t108.5 -29t47 4t21.5 8.5t21.5 15.5t22.5 15l12 -14q-16 -19 -53 -43.5t-69.5 -24.5t-110.5 28t-116 28t-89 -43z" />
<glyph horiz-adv-x="1732" />
<glyph unicode="&#xa1;" horiz-adv-x="501" d="M-78 -205q12 8 43 62q51 86 406 794q10 20 43 29q10 -2 10 -6q-303 -788 -311.5 -813t-12.5 -33q-106 -25 -161 -70h-2q-14 0 -15 31v6zM399 879q2 8 13 20q57 47 75 47h2q74 0 74 -47q0 -4 -18.5 -15.5t-28.5 -19.5q-25 -16 -33 -16q-41 25 -53 24.5t-21.5 -2.5t-9.5 9z " />
<glyph unicode="&#xa2;" horiz-adv-x="768" d="M109 389q0 104 64.5 217t173 195t263.5 98l60 148q6 16 39 20q8 -2 8 -6l-62 -160q70 0 122 -24.5t52 -65.5q0 -20 -24.5 -58t-28.5 -52.5t-22 -14.5q-2 4 -4 4q18 33 18 82q0 102 -109 102h-14q-158 -426 -246 -679h13q96 0 196.5 61t163.5 156q10 14 15.5 -2.5 t0.5 -22.5q-70 -111 -178 -178.5t-231 -69.5q-51 -147 -68 -209q-76 -33 -79 -32.5t-3 2.5q20 63 86 245q-2 0 -32 7q-90 23 -132 91t-42 146zM221 375q0 -131 117 -170q119 319 260 663q-102 -29 -180 -94q-156 -137 -191 -328q-6 -38 -6 -71z" />
<glyph unicode="&#xa3;" horiz-adv-x="1271" d="M0 -16.5q0 14.5 15.5 22.5t25.5 8q84 2 167 71t122 146l129 261q-113 0 -193 -7q-12 -2 19.5 31t44.5 33q41 -6 153 -6q145 285 179 336q104 166 223 213q70 29 153 28q100 0 176 -43q49 -29 50 -78q0 -16 -6.5 -36.5t-46.5 -68.5t-52 -77t-24.5 -22.5t-1.5 20.5 q49 68 49 150q0 41 -17 75q-25 55 -96 56q-131 0 -221 -138l-268 -417q147 0 301 6q4 0 -9 -17q-33 -49 -55 -49q-113 10 -252 11h-16l-168 -259q-109 -169 -199 -196l613 -19q188 0 215.5 34t27.5 54q0 59 -51 89q-14 6 -4 14q25 16 74 -53.5t55 -93t6 -50t-34.5 -54.5 t-116.5 -28q-115 0 -424 33q-354 37 -391 37q-84 0 -142 -45q-6 -6 -8 4t-2 24.5z" />
<glyph unicode="&#xa4;" horiz-adv-x="872" d="M178 242q0 45 6 79.5t15 40.5q27 16 172 136q-57 90 -57.5 197.5t55.5 191.5q-100 80 -170 137q-18 8 -19 57q0 109 8 109l250 -221q104 90 240.5 90t241.5 -94l249 225q10 0 11 -53q0 -102 -23 -113q-10 -10 -172 -135q57 -90 57 -197.5t-57 -193.5q150 -123 172 -136 q23 -16 23 -106q0 -59 -9 -57l-251 223q-102 -92 -241.5 -92t-244.5 92l-250 -225q-6 0 -6 45zM418 690.5q0 -108.5 77.5 -186.5t186.5 -78t186.5 78t77.5 186.5t-77.5 186t-186.5 77.5t-186.5 -77.5t-77.5 -186z" />
<glyph unicode="&#xa5;" horiz-adv-x="925" d="M16 182q0 31 10.5 29t10.5 -18q0 -92 47 -143.5t123 -51.5q201 0 414 293q-172 0 -240 -6q-12 -2 15.5 27.5t37.5 27.5q37 -6 148 -6q74 225 73.5 434t-75.5 295h-50q-319 0 -319 -148q0 -35 25 -88l-21 -16q-80 139 -81 151.5t-1 20.5q0 59 31 88q53 47 182 47l209 -8 q145 2 328 2l-43 -53q-72 0 -224 4q129 -84 129 -354q0 -133 -47 -295q14 20 154.5 231t210.5 291t103.5 114.5t100 77.5t119.5 43q57 0 84 -55q10 -23 10.5 -41t-3.5 -33q-8 -35 -27 -71q-4 -10 -11 -8t-4 15t3 36.5t-13 50.5q-18 43 -65 43q-98 0 -256 -182 q-205 -240 -410 -594q100 0 211 6q4 0 -6 -14q-29 -41 -47 -41l-180 8l-41 -72q-78 -137 -171 -218t-220 -81q-66 0 -121 37q-102 66 -103 225z" />
<glyph unicode="&#xa6;" horiz-adv-x="763" d="M131 0q21 60 199 496l88 4l-201 -500h-86zM420 715q168 406 190 467h97q-25 -39 -201 -467h-86z" />
<glyph unicode="&#xa7;" horiz-adv-x="1110" d="M16 -54q0 36 23.5 99.5t75.5 101.5q2 2 8 -4q14 -10 4 -20q-39 -45 -39 -103q0 -76 47 -145q47 -66 131 -108q92 -47 191 -48q145 0 215 109q39 63 39 132t-24.5 136.5t-100.5 193.5t-86 144q-41 78 -41 155t51 148q53 72 139 111q0 88 47 154.5t123 105.5q84 43 174 43 q127 0 205 -88q12 -18 12 -52t-34.5 -89.5t-47.5 -98.5q-6 -4 -20 -7t-18 1q35 70 34.5 141.5t-26.5 94.5q-59 55 -158 55q-135 0 -197 -94q-37 -55 -36.5 -103.5t18.5 -89.5q31 -76 153.5 -189.5t159.5 -184t37 -115.5q0 -127 -67 -209q-86 -104 -172 -137 q-19 -138 -156 -230t-276.5 -92t-248 54.5t-135.5 168.5q-4 23 -4 59zM518.5 630q-0.5 -38 18.5 -77q29 -70 138 -204t135 -199.5t30 -120.5q2 4 12 10q100 68 100 201q0 76 -34.5 143.5t-117.5 166.5t-113 155.5t-36 115.5q-83 -34 -116 -114q-16 -39 -16.5 -77z" />
<glyph unicode="&#xa8;" horiz-adv-x="509" d="M156 803q0 6 36.5 28.5t40 22.5t23.5 -12.5t32.5 -12.5t21.5 2.5t9 -8.5q-2 -8 -12 -20q-58 -47 -76 -47q-76 0 -75 47zM393 803q0 6 53 39l27 12q41 -25 53.5 -25t21.5 2.5t9 -8.5q-2 -8 -12 -20q-58 -47 -76 -47q-76 0 -76 47z" />
<glyph unicode="&#xa9;" horiz-adv-x="1464" d="M82 352v56.5t24.5 141.5t90 203.5t159 191.5t219 128t252.5 43q33 0 66 -2q250 -18 369 -104q133 -94 133 -297q0 -133 -56.5 -269.5t-166 -242t-252 -157.5t-279.5 -52q-33 0 -68 2q-471 35 -491 358zM193 352q0 -299 362 -325q25 -2 49 -2q129 0 257 58t222.5 167.5 t142.5 241t48 253.5q0 18 -2 39q-16 270 -375 299q-17 2 -33 2q-117 0 -243.5 -68.5t-223 -184t-150.5 -245.5t-54 -235zM352 401q0 143 90 271q113 160 287 221q88 29 162 29t126 -25t52 -66q0 -20 -23.5 -58t-29.5 -56q-9 -6 -25 -6q18 33 18.5 76.5t-18.5 74.5 q-18 35 -90 35q-129 0 -242 -102q-158 -137 -192 -328q-6 -39 -6 -70q0 -131 112 -170q41 -14 100.5 -14t137.5 41q125 66 203 178q8 14 14 -2t2 -22q-84 -135 -223 -203q-90 -45 -163 -45t-133 14t-105 66q-53 61 -54 161z" />
<glyph unicode="&#xaa;" d="M6 662q0 10 2 14q14 117 94 246q160 258 332 258h236q10 0 10 -9q0 -16 -18 -16q-29 0 -72 -66.5t-113.5 -205t-70.5 -174t28 -35.5q47 0 131 84q45 45 67.5 71.5t30 35t48.5 59.5q4 -4 4 -16.5t-29 -51.5q-182 -242 -338 -242q-49 0 -49 39q0 72 80 197 q-72 -76 -164 -155t-172 -79q-37 0 -37 46zM111 711q0 -25 16 -25q59 0 212 181t153 247q0 39 -52.5 39t-116 -59.5t-138 -191.5t-74.5 -191z" />
<glyph unicode="&#xab;" horiz-adv-x="727" d="M218 408.5q1 11.5 103.5 120t147.5 151.5q20 16 33.5 16t13.5 -8q-2 -12 -91 -110.5t-122 -131.5q4 -6 22.5 -31.5t36 -50t35.5 -53.5q41 -59 37 -75q-4 -23 -22 -23l-13 6q-33 61 -98 109q-12 10 -43 34.5t-39 30.5q-2 4 -1 15.5zM461 403q2 17 104.5 125.5t133 138 t46 29.5t15.5 -8q-4 -16 -213 -242q8 -8 59 -86q76 -111 72 -124q-4 -23 -23 -23l-12 6q-31 49 -60.5 74.5t-37.5 34t-43 35t-39 30.5q-4 8 -2 10z" />
<glyph unicode="&#xac;" horiz-adv-x="847" d="M125 457l25 47h286q264 0 318 4l14 -6q-57 -92 -88 -195l-86 2q4 11 84 154q-31 2 -109 2q-340 0 -444 -8z" />
<glyph unicode="&#xad;" horiz-adv-x="509" d="M154 299q0 6 19.5 29.5t27.5 23.5l133 -8q51 0 107.5 3t56.5 1t-7.5 -14t-20.5 -25.5t-21.5 -13.5t-30.5 4q-35 4 -88 4z" />
<glyph unicode="&#xae;" horiz-adv-x="1447" d="M82 352v56.5t24.5 141.5t90 203.5t159 191.5t219 128t252.5 43q33 0 66 -2q250 -18 369 -104q133 -94 133 -301q0 -295 -222.5 -506t-527.5 -211q-35 0 -72 2q-471 35 -491 358zM193 351.5q0 -105.5 47 -181.5h2q59 12 90 70q55 90 252 454q70 123 90 172t2 66 q-33 0 -47 16q-10 12 41 14.5t137 2.5l98 2q47 0 99 -19q96 -31 96 -139q0 -164 -187 -240q-92 -37 -186 -41q57 -129 150 -241q47 -57 106 -58q59 0 125 66q31 29 53 65q113 166 113 375q0 25 -2 49q-16 270 -375 299q-16 2 -33 2q-117 0 -243.5 -68.5t-223 -184 t-150.5 -245.5t-54 -235.5zM248 160q82 -115 307 -133q27 -2 51 -2q262 -1 461 208q-84 -63 -154.5 -63t-128.5 76q-78 102 -139 239q-16 37 -18 41q27 37 41 37h6q84 0 177 50.5t130 154.5q10 29 10 56.5t-8 52.5q-20 51 -72 57q-20 2 -37 2q-53 0 -76.5 -31t-52 -79 t-46 -81.5t-48 -96t-41.5 -81.5q-160 -295 -159 -348q0 -6 2 -12t-18.5 0t-36 6t-58.5 -23q-80 -39 -92 -30z" />
<glyph unicode="&#xaf;" horiz-adv-x="512" d="M229 817q39 10 172 10q145 0 183 -20q2 0 -0.5 -6t-12.5 -6l-315 -19q-8 0 -18 15q-14 16 -9 26z" />
<glyph unicode="&#xb0;" horiz-adv-x="434" d="M186 682q0 74 58.5 120t123 46t100.5 -37t36 -82q0 -72 -60.5 -119t-124 -47t-98.5 38t-35 81zM250 701.5q0 -33.5 21.5 -56t58.5 -22.5t72.5 27.5t35.5 78.5q0 16 -21.5 39t-58 23t-67.5 -25q-41 -31 -41 -64.5z" />
<glyph unicode="&#xb1;" horiz-adv-x="759" d="M51 20q0 6 30 36t42 30l272 -10q115 0 235 4t120 1t-13 -18q-39 -47 -59 -47q-256 10 -287 11zM188 541q-14 0 22 37.5t50 35.5q47 -8 268 -8q68 168 86 234q8 23 91 41q12 4 18 4t6 -4q-78 -162 -127 -275q181 0 328 6q4 0 4 -5t-31 -37.5t-45 -30.5q-160 8 -280 10 l-3 -8q-92 -219 -102 -269q-6 -23 -59.5 -35t-53.5 -8q35 66 146 320q-227 0 -318 -8z" />
<glyph unicode="&#xb2;" horiz-adv-x="450" d="M-12 586q233 211 258 235q225 211 225 297q0 23 -18.5 44.5t-67.5 21.5h-27.5t-61.5 -22.5t-50 -67.5l-8 -58l-50 -24q33 115 37 159q0 51 140 52q39 2 53 2q139 0 139 -105q0 -78 -69.5 -153.5t-197.5 -172t-151 -116.5q-29 -20 -14 -21l98 -4q100 0 129 15.5t57.5 48.5 t36.5 51l29 -10q-23 -23 -57.5 -93.5t-91.5 -70.5l-125 4q-31 0 -72 -3t-141 -9z" />
<glyph unicode="&#xb3;" horiz-adv-x="450" d="M43 627q0 6 6 18t35 113l35 14q0 -6 -5 -28.5t-8 -38.5q-10 -82 82 -82q90 0 141.5 49t65 97t13.5 74.5t-32 46t-69 24t-92 4.5l31 36l26 4q168 41 195 125q6 16 6 36t-18.5 42.5t-67.5 22.5h-30.5t-59.5 -20.5t-47 -67.5t-12 -60l-50 -24q33 115 35 149q4 61 142 62 q41 2 55 2q131 0 131 -101q0 -55 -35 -92q-45 -55 -135 -86l4 -2q61 -6 85 -44t24 -63.5t-6.5 -60.5t-41.5 -86q-74 -111 -264 -110q-84 0 -111.5 17t-27.5 30z" />
<glyph unicode="&#xb4;" horiz-adv-x="264" d="M55 686q-2 0 2 14q74 55 162.5 132t106.5 77q6 0 6 -27.5t-8 -35.5q-10 -18 -127 -87t-142 -73z" />
<glyph unicode="&#xb5;" horiz-adv-x="514" d="M-338 -631q0 104 158 338q43 66 116.5 168t114.5 162.5t71 108t68.5 129t51.5 151.5q-14 -31 -86 -119t-109 -125q-2 0 -6 -2q-6 0 -6 5t3 9.5t17.5 21.5t31.5 36.5t22 26.5q96 123 137 210q18 43 49 43q23 0 22.5 -26.5t-7.5 -66.5t-37.5 -108.5t-81 -156.5t-66.5 -123 q139 88 272 234l15 14q35 115 69 145q12 10 41 10.5t27 -16.5q-8 -45 -49 -86q-78 -174 -78 -260q0 -47 41 -47q35 0 67.5 26.5t35.5 26.5t3 -8l-2 -4q-71 -76 -143 -76q-59 0 -59 72q0 45 36 180q-92 -123 -309 -256q-201 -305 -258 -430q-76 -166 -76 -258t80 -92 q70 0 168 53q-18 -29 -70.5 -50.5t-89.5 -21.5q-86 0 -135 52.5t-49 109.5z" />
<glyph unicode="&#xb6;" horiz-adv-x="1011" d="M-393 -535q-2 16 45 17q98 0 203.5 65.5t188.5 157.5t165 217q135 199 229 402q-129 10 -221 73q-100 68 -100 195q0 92 61 182q104 156 310 227.5t436 71.5q102 0 149 12q123 143 254 144q55 0 55 -27q2 -18 -8 -25.5t-28 -7.5q-123 0 -250 -194q-57 -88 -140.5 -279.5 t-106 -240.5t-53 -115t-88 -172.5t-109.5 -185t-126 -168.5q-139 -172 -303 -240q-84 -35 -166 -35h-10h-17q-139 -100 -301 -100q-70 0 -69 26zM16 -432q94 8 191.5 79.5t177.5 180.5q152 207 236 389q299 611 393 791l-58 -2q-143 -100 -329 -490q-78 -164 -164 -335 t-203 -340t-244 -273z" />
<glyph unicode="&#xb7;" horiz-adv-x="1208" d="M369 582q0 139 125 237q100 80 223 80t189.5 -70.5t66.5 -156.5q0 -138 -125 -234q-100 -80 -224 -80t-189.5 71t-65.5 153z" />
<glyph unicode="&#xb8;" horiz-adv-x="389" d="M-47 -424q0 12 18 12q131 0 179 52q27 31 26.5 59.5t-34 82.5t-33.5 96t39.5 83t97.5 41h41q-45 -10 -76 -41t-31 -63.5t36 -81.5t36 -88v-13q-14 -76 -104.5 -115.5t-182.5 -39.5q-16 0 -12 16z" />
<glyph unicode="&#xb9;" horiz-adv-x="348" d="M-2 590l25 35q8 -2 22 -2t50 8t50 35q31 59 76 215q68 203 68 224t-10 21q-14 0 -78 -53l-33 -22q2 27 7 39t5 16l217 133q12 6 20.5 6t8.5 -9t-25 -58q-35 -70 -102 -304q-51 -147 -61 -212q-4 -31 65 -37q25 -2 39 0l-29 -35q-20 6 -135 12q-51 -2 -180 -12z" />
<glyph unicode="&#xba;" horiz-adv-x="542" d="M18 696q0 117 113 273q72 102 174 161q109 68 184 68q82 0 82 -80q0 -111 -110 -270q-43 -57 -78 -90q135 0 250 151q10 10 10 -7t-8 -28q-104 -145 -238 -145q-18 0 -37 2q-115 -106 -258 -106q-84 0 -84 71zM115 730q0 -71 37 -71q29 0 63.5 19.5t54.5 40.5 q63 68 133 184.5t70 212.5q0 49 -37 49q-12 0 -47 -13t-87 -67.5t-99 -138.5q-88 -145 -88 -216z" />
<glyph unicode="&#xbb;" horiz-adv-x="727" d="M184 213q2 16 213 242q-133 180 -133 205.5t23 25.5l12 -6q39 -61 100 -111q43 -33 80 -63q4 -4 2 -15.5t-104.5 -120t-147.5 -151.5q-20 -16 -34.5 -16t-10.5 10zM455 213q2 16 213 242q-133 180 -133 205.5t22 25.5l12 -6q39 -61 101 -111q43 -33 80 -63q4 -4 2 -15.5 t-104.5 -120t-147.5 -151.5q-21 -16 -35 -16t-10 10z" />
<glyph unicode="&#xbc;" horiz-adv-x="2017" d="M498 -51q227 317 552.5 727.5t475.5 572.5q6 8 41 8q61 0 100 -8q-139 -147 -544.5 -634.5t-536.5 -667.5q-8 -14 -31 -15q-55 0 -57 17z" />
<glyph unicode="&#xbd;" horiz-adv-x="1345" d="M-66 -57l3 6q291 315 700.5 726.5t591.5 573.5q8 8 31 8q41 0 65 -8q-156 -135 -642 -619.5t-673 -682.5q-12 -14 -30 -15q-43 0 -46 11zM78 590l24 35q8 -2 22.5 -2t50.5 8t50 35q31 59 76 215q68 203 68 224t-11 21q-14 0 -77 -53l-33 -22q2 27 7 39t5 16 q164 100 201 122.5t43 14.5t-21 -63q-37 -72 -104 -306q-51 -147 -62 -212q-4 -31 68 -37q23 -2 37 0l-29 -35q-20 6 -135 12q-51 -2 -180 -12zM670 -8q233 211 258 235q225 211 225 297q0 23 -18.5 44.5t-67.5 21.5h-6q-104 0 -133 -90l-8 -58l-50 -24q33 115 37 160 q0 51 140 51q39 2 53 2q139 0 139 -105q0 -78 -69.5 -153.5t-197.5 -172t-151 -116.5q-29 -20 -14 -21l98 -4q100 0 129 15.5t57.5 48.5t36.5 51l29 -10q-23 -23 -57.5 -93.5t-91.5 -70.5l-125 4q-31 0 -72 -3t-141 -9z" />
<glyph unicode="&#xbe;" horiz-adv-x="1429" d="M33 -57l2 6q291 315 700.5 726.5t591.5 573.5q8 8 31 8q41 0 65 -8q-156 -135 -642 -619.5t-672 -682.5q-12 -14 -31 -15q-43 0 -45 11zM43 627q0 6 6 18t35 113l35 14q0 -6 -5 -28.5t-8 -38.5q-10 -82 82 -82q90 0 141.5 49t65 97t13.5 74.5t-32 46t-69 24t-92 4.5 l31 36l26 4q168 41 195 125q6 16 6 36t-18.5 42.5t-67.5 22.5h-30.5t-59.5 -20.5t-47 -67.5t-12 -60l-50 -24q33 115 35 149q4 61 142 62q41 2 55 2q131 0 131 -101q0 -55 -35 -92q-45 -55 -135 -86l4 -2q61 -6 85 -44t24 -63.5t-6.5 -60.5t-41.5 -86q-74 -111 -264 -110 q-84 0 -111.5 17t-27.5 30zM737 182q0 8 15 21q33 18 120 119q205 215 230.5 246.5t45 37.5t54.5 21.5t45 15.5t11.5 -4t-23.5 -54t-82 -235l-35 -104q47 4 62.5 13t47.5 41t40 50l20 -6l4 -12q-6 -6 -28.5 -39t-30.5 -51q-33 -64 -92 -64h-6h-37q-23 -82 -26 -104.5 t22 -32.5q43 -16 84 -10l-33 -35q-16 6 -135 12q-51 -2 -179 -12l27 35q6 -2 20.5 -2t49.5 8t50 31.5t44 111.5h-70q-88 -2 -190 -6q-25 0 -25 8zM858 245q0 -5 83 -5t97 2l6 10l58 182q29 82 26 103q-36 -31 -233 -244q-37 -43 -37 -48z" />
<glyph unicode="&#xbf;" horiz-adv-x="913" d="M16 -70q0 106 58.5 174t125 104t134.5 66q172 78 234.5 174.5t62.5 145.5t-21 74l23 32q51 -59 51 -145t-113 -178l-340 -271q-82 -66 -81.5 -154.5t77.5 -121.5q33 -14 66 -14t81 6t87 33.5t74.5 88t48.5 111.5q0 23 20 29q23 8 21 -10q-37 -162 -37 -186.5v-26.5 q0 -74 -236 -90q-84 -6 -108 -7q-227 0 -228 166zM631 879q2 8 14 20q57 47 74 47h2q74 0 74 -45q0 -10 -38 -31.5t-40 -21.5q-41 25 -53.5 24.5t-22.5 -2.5t-10 9z" />
<glyph unicode="&#xc0;" horiz-adv-x="1572" d="M41 72q0 12 2 36.5t27.5 78t31.5 53.5q16 2 7 -17q-27 -59 -27 -92t10 -49q27 -47 105 -47q244 0 718 442q-233 12 -272 12q-156 0 -207 -51q-37 -37 -37 -98q0 -16 4 -31q-31 6 -42 12.5t-15 20.5q2 16 -2 25.5t5 21.5t12.5 19.5t16.5 16.5t20.5 14t22.5 13.5t23.5 11.5 t24.5 11q170 74 307 74q84 0 209 -6q135 131 301 306t328 218h-113q-459 0 -497 -195q-2 -14 -2.5 -37.5t24.5 -37.5q10 -6 -8.5 -14.5t-24.5 -4.5q-20 14 -33.5 53t-13.5 54q0 63 36 106t95.5 64.5t108.5 35t129 19.5q113 6 215 6h223q4 0 2 -2q150 68 189 68q49 -1 49 -19 q0 -10 -29 -10t-39 -2q-33 -6 -72 -49q-68 -68 -213 -323t-235 -455q0 -2 -2 -7q-74 -170 -74 -232t41 -62q55 0 136 75.5t147 167.5q10 16 19 8t-3 -24q-29 -39 -37 -49.5t-26.5 -34t-32.5 -38.5t-35.5 -36.5t-40.5 -38.5q-88 -72 -154 -71q-119 0 -118 124q0 94 76.5 257 t206.5 400.5t194 321.5q-51 -2 -148.5 -57t-159 -118.5t-176 -190.5t-163.5 -180q123 -4 197.5 -4t138.5 30q-12 -33 -46 -60.5t-90.5 -30.5t-128 -3t-135.5 2q-508 -524 -813 -524q-66 0 -101.5 34.5t-35.5 88.5zM1546 1457q0 28 6 28q18 0 106.5 -77t162.5 -132l2 -14 q-25 4 -142 72.5t-127 86.5q-8 8 -8 36z" />
<glyph unicode="&#xc1;" horiz-adv-x="1572" d="M41 72q0 12 2 36.5t27.5 78t31.5 53.5q16 2 7 -17q-27 -59 -27 -92t10 -49q27 -47 105 -47q244 0 718 442q-233 12 -272 12q-156 0 -207 -51q-37 -37 -37 -98q0 -16 4 -31q-31 6 -42 12.5t-15 20.5q2 16 -2 25.5t5 21.5t12.5 19.5t16.5 16.5t20.5 14t22.5 13.5t23.5 11.5 t24.5 11q170 74 307 74q84 0 209 -6q135 131 301 306t328 218h-113q-459 0 -497 -195q-2 -14 -2.5 -37.5t24.5 -37.5q10 -6 -8.5 -14.5t-24.5 -4.5q-20 14 -33.5 53t-13.5 54q0 63 36 106t95.5 64.5t108.5 35t129 19.5q113 6 215 6h223q4 0 2 -2q150 68 189 68q49 -1 49 -19 q0 -10 -29 -10t-39 -2q-33 -6 -72 -49q-68 -68 -213 -323t-235 -455q0 -2 -2 -7q-74 -170 -74 -232t41 -62q55 0 136 75.5t147 167.5q10 16 19 8t-3 -24q-29 -39 -37 -49.5t-26.5 -34t-32.5 -38.5t-35.5 -36.5t-40.5 -38.5q-88 -72 -154 -71q-119 0 -118 124q0 94 76.5 257 t206.5 400.5t194 321.5q-51 -2 -148.5 -57t-159 -118.5t-176 -190.5t-163.5 -180q123 -4 197.5 -4t138.5 30q-12 -33 -46 -60.5t-90.5 -30.5t-128 -3t-135.5 2q-508 -524 -813 -524q-66 0 -101.5 34.5t-35.5 88.5zM1708 1262q-2 0 2 14q74 55 162 132t106 77q6 0 6.5 -27.5 t-8.5 -36.5q-10 -18 -126.5 -86.5t-141.5 -72.5z" />
<glyph unicode="&#xc2;" horiz-adv-x="1572" d="M41 72q0 12 2 36.5t27.5 78t31.5 53.5q16 2 7 -17q-27 -59 -27 -92t10 -49q27 -47 105 -47q244 0 718 442q-233 12 -272 12q-156 0 -207 -51q-37 -37 -37 -98q0 -16 4 -31q-31 6 -42 12.5t-15 20.5q2 16 -2 25.5t5 21.5t12.5 19.5t16.5 16.5t20.5 14t22.5 13.5t23.5 11.5 t24.5 11q170 74 307 74q84 0 209 -6q135 131 301 306t328 218h-113q-459 0 -497 -195q-2 -14 -2.5 -37.5t24.5 -37.5q10 -6 -8.5 -14.5t-24.5 -4.5q-20 14 -33.5 53t-13.5 54q0 63 36 106t95.5 64.5t108.5 35t129 19.5q113 6 215 6h223q4 0 2 -2q150 68 190 68t46 -11.5 t-6.5 -14.5t-31 -3t-28.5 -2q-33 -6 -72 -49q-68 -68 -213 -323t-235 -455q0 -2 -2 -7q-74 -170 -74 -232t41 -62q55 0 136 75.5t147 167.5q10 16 19 8t-3 -24q-29 -39 -37 -49.5t-26.5 -34t-32.5 -38.5t-35.5 -36.5t-40.5 -38.5q-88 -72 -154 -71q-119 0 -118 124 q0 94 76.5 257t206.5 400.5t194 321.5q-51 -2 -148.5 -57t-159 -118.5t-176 -190.5t-163.5 -180q123 -4 197.5 -4t138.5 30q-12 -33 -46 -60.5t-90.5 -30.5t-128 -3t-135.5 2q-508 -524 -813 -524q-66 0 -101.5 34.5t-35.5 88.5zM1587 1276q150 100 232 172h24 q49 -82 139 -143q27 -16 37 -17v-6l-51 -20q-47 0 -158 133q0 6 -12 0q-23 -20 -88 -64.5t-84.5 -51.5t-38.5 -3z" />
<glyph unicode="&#xc3;" horiz-adv-x="1572" d="M41 72q0 12 2 36.5t27.5 78t31.5 53.5q16 2 7 -17q-27 -59 -27 -92t10 -49q27 -47 105 -47q244 0 718 442q-233 12 -272 12q-156 0 -207 -51q-37 -37 -37 -98q0 -16 4 -31q-31 6 -42 12.5t-15 20.5q2 16 -2 25.5t5 21.5t12.5 19.5t16.5 16.5t20.5 14t22.5 13.5t23.5 11.5 t24.5 11q170 74 307 74q84 0 209 -6q135 131 301 306t328 218h-113q-459 0 -497 -195q-2 -14 -2.5 -37.5t24.5 -37.5q10 -6 -8.5 -14.5t-24.5 -4.5q-20 14 -33.5 53t-13.5 54q0 63 36 106t95.5 64.5t108.5 35t129 19.5q113 6 215 6h223q4 0 2 -2q150 68 190 68t46 -11.5 t-6.5 -14.5t-31 -3t-28.5 -2q-33 -6 -72 -49q-68 -68 -213 -323t-235 -455q0 -2 -2 -7q-74 -170 -74 -232t41 -62q55 0 136 75.5t147 167.5q10 16 19 8t-3 -24q-29 -39 -37 -49.5t-26.5 -34t-32.5 -38.5t-35.5 -36.5t-40.5 -38.5q-88 -72 -154 -71q-119 0 -118 124 q0 94 76.5 257t206.5 400.5t194 321.5q-51 -2 -148.5 -57t-159 -118.5t-176 -190.5t-163.5 -180q123 -4 197.5 -4t138.5 30q-12 -33 -46 -60.5t-90.5 -30.5t-128 -3t-135.5 2q-508 -524 -813 -524q-66 0 -101.5 34.5t-35.5 88.5zM1616 1309q10 33 41 60.5t63.5 27.5 t83.5 -21q63 -25 104.5 -24.5t73.5 45.5h21q-12 -43 -40 -73t-62.5 -30t-99 26t-104.5 26t-57 -37h-24z" />
<glyph unicode="&#xc4;" horiz-adv-x="1572" d="M41 72q0 12 2 36.5t27.5 78t31.5 53.5q16 2 7 -17q-27 -59 -27 -92t10 -49q27 -47 105 -47q244 0 718 442q-233 12 -272 12q-156 0 -207 -51q-37 -37 -37 -98q0 -16 4 -31q-31 6 -42 12.5t-15 20.5q2 16 -2 25.5t5 21.5t12.5 19.5t16.5 16.5t20.5 14t22.5 13.5t23.5 11.5 t24.5 11q170 74 307 74q84 0 209 -6q135 131 301 306t328 218h-113q-459 0 -497 -195q-2 -14 -2.5 -37.5t24.5 -37.5q10 -6 -8.5 -14.5t-24.5 -4.5q-20 14 -33.5 53t-13.5 54q0 63 36 106t95.5 64.5t108.5 35t129 19.5q113 6 215 6h223q4 0 2 -2q150 68 189 68q49 -1 49 -19 q0 -10 -29 -10t-39 -2q-33 -6 -72 -49q-68 -68 -213 -323t-235 -455q0 -2 -2 -7q-74 -170 -74 -232t41 -62q55 0 136 75.5t147 167.5q10 16 19 8t-3 -24q-29 -39 -37 -49.5t-26.5 -34t-32.5 -38.5t-35.5 -36.5t-40.5 -38.5q-88 -72 -154 -71q-119 0 -118 124q0 94 76.5 257 t206.5 400.5t194 321.5q-51 -2 -148.5 -57t-159 -118.5t-176 -190.5t-163.5 -180q123 -4 197.5 -4t138.5 30q-12 -33 -46 -60.5t-90.5 -30.5t-128 -3t-135.5 2q-508 -524 -813 -524q-66 0 -101.5 34.5t-35.5 88.5zM1571 1378q0 10 38 31t40 21t22.5 -12.5t32.5 -12.5t21.5 2 t9.5 -8q-2 -8 -13 -21q-57 -47 -75 -47q-76 0 -76 47zM1808 1376q0 4 10.5 11.5t18.5 13.5t16.5 11t14.5 9q16 8 20 9q41 -25 53.5 -25t21.5 2t9 -8q-2 -8 -12 -21q-58 -47 -76 -47q-41 0 -76 45z" />
<glyph unicode="&#xc5;" horiz-adv-x="1572" d="M41 72q0 12 2 36.5t27.5 78t31.5 53.5q16 2 7 -17q-27 -59 -27 -92t10 -49q27 -47 105 -47q244 0 718 442q-233 12 -272 12q-156 0 -207 -51q-37 -37 -37 -98q0 -16 4 -31q-31 6 -42 12.5t-15 20.5q2 16 -2 25.5t5 21.5t12.5 19.5t16.5 16.5t20.5 14t22.5 13.5t23.5 11.5 t24.5 11q170 74 307 74q84 0 209 -6q135 131 301 306t328 218h-113q-459 0 -497 -195q-2 -14 -2.5 -37.5t24.5 -37.5q10 -6 -8.5 -14.5t-24.5 -4.5q-20 14 -33.5 53t-13.5 54q0 63 36 106t95.5 64.5t108.5 35t129 19.5q113 6 215 6h223q4 0 2 -2q150 68 190 68t46 -11.5 t-6.5 -14.5t-31 -3t-28.5 -2q-33 -6 -72 -49q-68 -68 -213 -323t-235 -455q0 -2 -2 -7q-74 -170 -74 -232t41 -62q55 0 136 75.5t147 167.5q10 16 19 8t-3 -24q-29 -39 -37 -49.5t-26.5 -34t-32.5 -38.5t-35.5 -36.5t-40.5 -38.5q-88 -72 -154 -71q-119 0 -118 124 q0 94 76.5 257t206.5 400.5t194 321.5q-51 -2 -148.5 -57t-159 -118.5t-176 -190.5t-163.5 -180q123 -4 197.5 -4t138.5 30q-12 -33 -46 -60.5t-90.5 -30.5t-128 -3t-135.5 2q-508 -524 -813 -524q-66 0 -101.5 34.5t-35.5 88.5zM1765 1309q0 31 30 76t58 51q35 53 97 53 q35 0 49 -22.5t14 -36.5q0 -70 -62.5 -121.5t-107.5 -51.5q-78 0 -78 52zM1829 1314.5q0 -26.5 22 -26.5q41 0 78 39q43 45 43.5 88t-30.5 43q-20 0 -54 -20l17 -8q-8 -12 -42 -50.5t-34 -65z" />
<glyph unicode="&#xc6;" horiz-adv-x="2209" d="M41 72q0 12 2 36.5t27.5 78t31.5 53.5q16 2 7 -17q-27 -59 -27 -92t10 -49q27 -47 105 -47q244 0 718 442q-233 12 -272 12q-156 0 -207 -51q-37 -37 -37 -98q0 -16 4 -31q-31 6 -42 12.5t-15 20.5q2 16 -2 25.5t5 21.5t12.5 19.5t16.5 16.5t20.5 14t22.5 13.5t23.5 11.5 t24.5 11q170 74 307 74q84 0 209 -6q135 131 301 306t328 218h-113q-459 0 -497 -195q-2 -14 -2.5 -37.5t24.5 -37.5q10 -6 -8.5 -14.5t-24.5 -4.5q-20 14 -33.5 53t-13.5 54q0 63 36 106t95.5 64.5t108.5 35t129 19.5q113 6 215 6h231q139 66 199 66q25 0 31 -11.5 t-6.5 -14.5t-27.5 -3t-26 -2q-26 -2 -61 -33l170 4q203 0 233 -28q18 -14 18.5 -28.5t-3.5 -31.5q-8 -59 -60 -135q-14 -27 -35 -25q-8 0 -0.5 30t7.5 67q0 86 -66 106q-29 8 -92.5 8t-136 -4t-101.5 -41q-63 -90 -250 -411q-8 -23 17 -23l237 -4q162 0 217 29q18 12 17 -4 q-2 -33 -37 -58.5t-61 -25.5l-322 8q-49 0 -81 -2t-41 -19.5t-34 -62.5q-139 -262 -139 -338q0 -109 205 -113q428 0 629 256q8 12 12 -3t-2 -23t-45 -58.5t-53.5 -66t-44.5 -47.5q-51 -55 -111 -74q-86 -25 -275.5 -25t-311.5 12.5t-150 55.5q-10 16 -10.5 47t30.5 92 l98 176q86 182 214 412.5t190 314.5q-51 -2 -148.5 -57t-159 -118.5t-176 -190.5t-163.5 -180q123 -4 197.5 -4t138.5 30q-12 -33 -46 -60.5t-90.5 -30.5t-128 -3t-135.5 2q-508 -524 -813 -524q-66 0 -101.5 34.5t-35.5 88.5z" />
<glyph unicode="&#xc7;" horiz-adv-x="1079" d="M78 293q0 176 106.5 359.5t274.5 310.5q215 162 465 161q113 0 195.5 -40t82.5 -105q0 -29 -38 -91.5t-48 -90.5q-4 -14 -31 -17q-8 2 -8 6q35 57 35 129t-22 113q-39 66 -152 66q-209 0 -408 -168q-145 -129 -238 -308.5t-93 -319.5t64.5 -211t164.5 -85q53 -8 104 -8 q156 0 295 55q223 86 359 254q20 25 20 0q0 -14 -16 -37q-129 -172 -346 -262q-156 -63 -336 -63q-51 -35 -51 -74t35.5 -88t35.5 -88v-13q-14 -76 -104 -115.5t-182 -39.5q-16 0 -13 16q0 12 19 12q131 0 178 52q27 31 27 59.5t-34 82.5t-34 85q0 72 64 115 q-164 12 -267.5 92t-103.5 256z" />
<glyph unicode="&#xc8;" horiz-adv-x="978" d="M70 90q0 31 30 92q59 106 170 299t175.5 308.5t115.5 195.5t127 98q-264 -14 -343 -46.5t-100.5 -70.5t-21.5 -81t33 -64q8 -4 -2 -11t-22.5 0t-38.5 46q-39 59 -39 113q0 127 233 143q39 2 105 2h10l469 8q170 0 203 -28q18 -14 18 -28.5t-4 -31.5q-8 -59 -60 -135 q-14 -27 -34 -25q-8 0 -1 30t7 67q0 86 -66 106q-29 8 -92 8t-136 -4t-101 -41q-63 -90 -250 -411q-8 -23 16 -23l238 -4q162 0 217 29q18 12 16 -4q-2 -33 -37 -58.5t-61 -25.5l-322 8q-49 0 -80.5 -2t-41 -19.5t-31.5 -62.5q-141 -262 -142 -338q0 -109 205 -113 q428 0 629 256q8 12 12 -3t-2 -23t-45 -58.5t-53.5 -66t-42.5 -47.5q-53 -55 -113 -74q-86 -25 -275.5 -25t-311 12.5t-150.5 55.5q-10 16 -10 47zM733 1457q0 28 6 28q18 0 106.5 -77t162.5 -132l2 -14q-25 4 -142 72.5t-127 86.5q-8 8 -8 36z" />
<glyph unicode="&#xc9;" horiz-adv-x="978" d="M70 90q0 31 30 92q59 106 170 299t175.5 308.5t115.5 195.5t127 98q-264 -14 -343 -46.5t-100.5 -70.5t-21.5 -81t33 -64q8 -4 -2 -11t-22.5 0t-38.5 46q-39 59 -39 113q0 127 233 143q39 2 105 2h10l469 8q170 0 203 -28q18 -14 18 -28.5t-4 -31.5q-8 -59 -60 -135 q-14 -27 -34 -25q-8 0 -1 30t7 67q0 86 -66 106q-29 8 -92 8t-136 -4t-101 -41q-63 -90 -250 -411q-8 -23 16 -23l238 -4q162 0 217 29q18 12 16 -4q-2 -33 -37 -58.5t-61 -25.5l-322 8q-49 0 -80.5 -2t-41 -19.5t-31.5 -62.5q-141 -262 -142 -338q0 -109 205 -113 q428 0 629 256q8 12 12 -3t-2 -23t-45 -58.5t-53.5 -66t-42.5 -47.5q-53 -55 -113 -74q-86 -25 -275.5 -25t-311 12.5t-150.5 55.5q-10 16 -10 47zM903 1262q-2 0 2 14q74 55 162.5 132t106.5 77q6 0 6 -27.5t-9 -36.5q-10 -18 -126.5 -86.5t-141.5 -72.5z" />
<glyph unicode="&#xca;" horiz-adv-x="978" d="M70 90q0 31 30 92q59 106 170 299t175.5 308.5t115.5 195.5t127 98q-264 -14 -343 -46.5t-100.5 -70.5t-21.5 -81t33 -64q8 -4 -2 -11t-22.5 0t-38.5 46q-39 59 -39 113q0 127 233 143q39 2 105 2h10l469 8q170 0 203 -28q18 -14 18 -28.5t-4 -31.5q-8 -59 -60 -135 q-14 -27 -34 -25q-8 0 -1 30t7 67q0 86 -66 106q-29 8 -92 8t-136 -4t-101 -41q-63 -90 -250 -411q-8 -23 16 -23l238 -4q162 0 217 29q18 12 16 -4q-2 -33 -37 -58.5t-61 -25.5l-322 8q-49 0 -80.5 -2t-41 -19.5t-31.5 -62.5q-141 -262 -142 -338q0 -109 205 -113 q428 0 629 256q8 12 12 -3t-2 -23t-45 -58.5t-53.5 -66t-42.5 -47.5q-53 -55 -113 -74q-86 -25 -275.5 -25t-311 12.5t-150.5 55.5q-10 16 -10 47zM713 1276q150 100 231 172h25q49 -82 139 -143q27 -16 37 -17v-6l-51 -20q-47 0 -158 133q0 6 -12 0q-23 -20 -88.5 -64.5 t-85 -51.5t-37.5 -3z" />
<glyph unicode="&#xcb;" horiz-adv-x="978" d="M70 90q0 31 30 92q59 106 170 299t175.5 308.5t115.5 195.5t127 98q-264 -14 -343 -46.5t-100.5 -70.5t-21.5 -81t33 -64q8 -4 -2 -11t-22.5 0t-38.5 46q-39 59 -39 113q0 127 233 143q39 2 105 2h10l469 8q170 0 203 -28q18 -14 18 -28.5t-4 -31.5q-8 -59 -60 -135 q-14 -27 -34 -25q-8 0 -1 30t7 67q0 86 -66 106q-29 8 -92 8t-136 -4t-101 -41q-63 -90 -250 -411q-8 -23 16 -23l238 -4q162 0 217 29q18 12 16 -4q-2 -33 -37 -58.5t-61 -25.5l-322 8q-49 0 -80.5 -2t-41 -19.5t-31.5 -62.5q-141 -262 -142 -338q0 -109 205 -113 q428 0 629 256q8 12 12 -3t-2 -23t-45 -58.5t-53.5 -66t-42.5 -47.5q-53 -55 -113 -74q-86 -25 -275.5 -25t-311 12.5t-150.5 55.5q-10 16 -10 47zM735 1376q0 4 10.5 11.5t18.5 13.5t16 11t15 9q16 8 20 9q41 -25 53.5 -25t21.5 2t9 -8q-2 -8 -12 -21q-58 -47 -76 -47 q-41 0 -76 45zM973 1376q0 4 10 11.5t18.5 13.5t16.5 11t14 9q16 8 21 9q41 -25 53 -25t21.5 2t9.5 -8q-2 -8 -13 -21q-57 -47 -75 -47q-41 0 -76 45z" />
<glyph unicode="&#xcc;" horiz-adv-x="747" d="M20 240q0 27 9 28q14 2 14 -16q0 -94 46 -144.5t122 -50.5q162 0 330 226q33 41 55 70.5t54 85t44.5 76t46 89t38.5 78.5t43 92t40 86q66 137 164 203h-61q-319 0 -320 -148q0 -35 25 -88l-21 -16q-80 139 -81 151.5t-1 20.5q0 59 31 88q53 47 182 47l209 -8l328 2 l-27 -31q-63 0 -126.5 -11t-126 -59t-105.5 -120l-19 -31q-14 -33 -67 -162t-90 -213t-102.5 -194.5t-123 -173t-136.5 -100t-147.5 -37.5t-123.5 36q-102 70 -103 224zM772 1457q0 28 6 28q18 0 106.5 -77t162.5 -132l2 -14q-25 4 -142 72.5t-127 86.5q-8 8 -8 36z" />
<glyph unicode="&#xcd;" horiz-adv-x="747" d="M20 240q0 27 9 28q14 2 14 -16q0 -94 46 -144.5t122 -50.5q162 0 330 226q33 41 55 70.5t54 85t44.5 76t46 89t38.5 78.5t43 92t40 86q66 137 164 203h-61q-319 0 -320 -148q0 -35 25 -88l-21 -16q-80 139 -81 151.5t-1 20.5q0 59 31 88q53 47 182 47l209 -8l328 2 l-27 -31q-63 0 -126.5 -11t-126 -59t-105.5 -120l-19 -31q-14 -33 -67 -162t-90 -213t-102.5 -194.5t-123 -173t-136.5 -100t-147.5 -37.5t-123.5 36q-102 70 -103 224zM985 1262q-2 0 2 14q74 55 162 132t106 77q6 0 6.5 -27.5t-8.5 -36.5q-10 -18 -126.5 -86.5 t-141.5 -72.5z" />
<glyph unicode="&#xce;" horiz-adv-x="747" d="M20 240q0 27 9 28q14 2 14 -16q0 -94 46 -144.5t122 -50.5q162 0 330 226q33 41 55 70.5t54 85t44.5 76t46 89t38.5 78.5t43 92t40 86q66 137 164 203h-61q-319 0 -320 -148q0 -35 25 -88l-21 -16q-80 139 -81 151.5t-1 20.5q0 59 31 88q53 47 182 47l209 -8l328 2 l-27 -31q-63 0 -126.5 -11t-126 -59t-105.5 -120l-19 -31q-14 -33 -67 -162t-90 -213t-102.5 -194.5t-123 -173t-136.5 -100t-147.5 -37.5t-123.5 36q-102 70 -103 224zM815 1276q150 100 232 172h24q49 -82 139 -143q27 -16 37 -17v-6l-51 -20q-47 0 -158 133q0 6 -12 0 q-23 -20 -88.5 -64.5t-84.5 -51.5t-38 -3z" />
<glyph unicode="&#xcf;" horiz-adv-x="747" d="M20 240q0 27 9 28q14 2 14 -16q0 -94 46 -144.5t122 -50.5q162 0 330 226q33 41 55 70.5t54 85t44.5 76t46 89t38.5 78.5t43 92t40 86q66 137 164 203h-61q-319 0 -320 -148q0 -35 25 -88l-21 -16q-80 139 -81 151.5t-1 20.5q0 59 31 88q53 47 182 47l209 -8l328 2 l-27 -31q-63 0 -126.5 -11t-126 -59t-105.5 -120l-19 -31q-14 -33 -67 -162t-90 -213t-102.5 -194.5t-123 -173t-136.5 -100t-147.5 -37.5t-123.5 36q-102 70 -103 224zM825 1378q0 10 38 31t40 21t22.5 -12.5t33 -12.5t21.5 2t9 -8q-2 -8 -12 -21q-58 -47 -76 -47 q-76 0 -76 47zM1063 1376q-2 2 5 8.5t19.5 14.5t23.5 15t19.5 11.5t10.5 4.5t22.5 -12.5t32.5 -12.5t21.5 2t9.5 -8q-2 -8 -13 -21q-57 -47 -75 -47q-41 0 -76 45z" />
<glyph unicode="&#xd0;" horiz-adv-x="1282" d="M-4 -27l4 7l12 4q0 -2 15 2q66 23 104 92q106 178 229 409q-94 -4 -153 -8q-12 -2 18.5 34t42.5 34q27 -6 119 -10l197 372q29 66 47 97q31 51 121 81h-50q-135 0 -289.5 -27.5t-191.5 -96.5q-20 -37 -20 -67t9 -46t18.5 -23.5t9.5 -9.5q0 -12 -16.5 -12t-47.5 47 q-43 68 -43 117q0 145 336 145l407 10q285 0 416 -100q49 -39 80 -106.5t31 -157.5q0 -209 -139 -418q-250 -375 -701 -375q-158 0 -278 62q-37 18 -68 18t-98.5 -43t-94 -43t-26.5 12zM299 113.5q0 -27.5 51 -70.5q61 -47 187 -47q227 0 408 130t269 343q61 156 61.5 296 t-96 228t-255.5 88q-109 0 -146 -42t-83 -121.5t-74.5 -136t-63.5 -128.5q-45 -92 -59 -116q82 0 159 8q12 0 -18.5 -35t-40.5 -33l-127 10l-160 -317q-12 -29 -12 -56.5z" />
<glyph unicode="&#xd1;" horiz-adv-x="1476" d="M12 240q0 31 10.5 29.5t10.5 -17.5q0 -96 52 -159.5t128 -63.5q147 0 272 131q109 117 166.5 234.5t77.5 166.5q39 82 125 299q33 80 88 137.5t127 69.5h-113q-326 0 -391 -94q-18 -29 -18 -54.5t6 -46.5q18 -55 61 -75q12 -6 -2 -13.5t-22 -5.5q-27 14 -66 58 q-55 66 -55 114.5t31.5 85.5t130.5 54q141 27 319 26h8h248q18 2 -8.5 -30.5t-32.5 -31.5t-19 1t-50 -8.5t-54 -20.5q12 -150 83 -394.5t155 -455.5q25 61 121 325.5t180 451t156 253.5q53 49 123.5 49t68.5 -55l-2 -74l-18 -4q2 23 -18.5 36t-41.5 13q-96 0 -231 -278 q-115 -231 -197 -442t-96 -244t-14 -57q0 -29 8 -64t-12.5 -50.5t-40 -23.5t-44 -32.5t-32.5 -36.5q-4 -6 -8 -6q-12 0 -15 12q23 31 41 84q-43 233 -192 694q-49 156 -68 215q-20 -14 -51 -106q-74 -219 -188 -451q-76 -156 -172 -272q-45 -55 -136.5 -94t-160 -39 t-125.5 36q-102 66 -103 224zM1249 1309q10 33 41 60.5t63.5 27.5t84.5 -21q63 -25 104 -24.5t74 45.5h20q-12 -43 -39.5 -73t-62.5 -30t-99.5 26t-104.5 26t-56 -37h-25z" />
<glyph unicode="&#xd2;" horiz-adv-x="1216" d="M14 299q0 197 138 414q70 115 166 208t237 153.5t301 60.5q244 0 357.5 -79t113.5 -245q0 -213 -114.5 -406.5t-312.5 -311.5t-425 -118q-461 0 -461 324zM123 281q0 -274 336 -275q201 0 378 127t275 316.5t98 379.5q0 274 -350 275q-174 0 -349 -139.5t-281.5 -332 t-106.5 -351.5zM791 1457q0 28 6 28q18 0 106 -77t162 -132l2 -14q-25 4 -141.5 72.5t-126.5 86.5q-8 8 -8 36z" />
<glyph unicode="&#xd3;" horiz-adv-x="1216" d="M14 299q0 197 138 414q70 115 166 208t237 153.5t301 60.5q244 0 357.5 -79t113.5 -245q0 -213 -114.5 -406.5t-312.5 -311.5t-425 -118q-461 0 -461 324zM123 281q0 -274 336 -275q201 0 378 127t275 316.5t98 379.5q0 274 -350 275q-174 0 -349 -139.5t-281.5 -332 t-106.5 -351.5zM940 1262q-2 0 2 14q74 55 162 132t106 77q6 0 6.5 -27.5t-8.5 -36.5q-10 -18 -126.5 -86.5t-141.5 -72.5z" />
<glyph unicode="&#xd4;" horiz-adv-x="1216" d="M14 299q0 197 138 414q70 115 166 208t237 153.5t301 60.5q244 0 357.5 -79t113.5 -245q0 -213 -114.5 -406.5t-312.5 -311.5t-425 -118q-461 0 -461 324zM123 281q0 -274 336 -275q201 0 378 127t275 316.5t98 379.5q0 274 -350 275q-174 0 -349 -139.5t-281.5 -332 t-106.5 -351.5zM786 1276q150 100 232 172h24q49 -82 140 -143q27 -16 37 -17v-6l-52 -20q-47 0 -157 133q0 6 -13 0q-23 -20 -88 -64.5t-84.5 -51.5t-38.5 -3z" />
<glyph unicode="&#xd5;" horiz-adv-x="1216" d="M14 299q0 197 138 414q70 115 166 208t237 153.5t301 60.5q244 0 357.5 -79t113.5 -245q0 -213 -114.5 -406.5t-312.5 -311.5t-425 -118q-461 0 -461 324zM123 281q0 -274 336 -275q201 0 378 127t275 316.5t98 379.5q0 274 -350 275q-174 0 -349 -139.5t-281.5 -332 t-106.5 -351.5zM831 1309q10 33 41 60.5t64 27.5t84 -21q63 -25 104 -24.5t74 45.5h21q-13 -43 -40.5 -73t-62.5 -30t-99.5 26t-104.5 26t-56 -37h-25z" />
<glyph unicode="&#xd6;" horiz-adv-x="1216" d="M14 299q0 197 138 414q70 115 166 208t237 153.5t301 60.5q244 0 357.5 -79t113.5 -245q0 -213 -114.5 -406.5t-312.5 -311.5t-425 -118q-461 0 -461 324zM123 281q0 -274 336 -275q201 0 378 127t275 316.5t98 379.5q0 274 -350 275q-174 0 -349 -139.5t-281.5 -332 t-106.5 -351.5zM838 1376q0 4 10 11.5l18 13.5t16.5 11t14.5 9q16 8 21 9q41 -25 53 -25t21 2t9 -8q-2 -8 -12 -21q-58 -47 -76 -47q-41 0 -75 45zM1075 1378q0 10 38 31t40 21t22.5 -12.5t33 -12.5t21.5 2t9 -8q-2 -8 -12 -21q-58 -47 -76 -47q-76 0 -76 47z" />
<glyph unicode="&#xd7;" horiz-adv-x="872" d="M113 258q0 39 12 49q31 18 270 217q-41 35 -150.5 122t-120.5 94.5t-11 37.5q0 47 6 72q47 -43 156.5 -138.5t164.5 -148.5q177 150 322 287q8 -25 8 -61.5t-14 -47.5q-180 -139 -271 -217q240 -199 271 -217q14 -10 14 -43q0 -66 -6 -65l-324 286q-39 -33 -323 -286 q-4 20 -4 59z" />
<glyph unicode="&#xd8;" horiz-adv-x="1216" d="M8 -64.5q0 7.5 113 125.5q-106 80 -107 238q0 197 138 414q70 115 166 208t237 153.5t311 60.5t277 -43l82 73q6 8 28 9q39 0 62 -9q-53 -45 -113 -102q125 -80 125 -252q0 -213 -114.5 -406.5t-312.5 -311.5t-407.5 -118t-326.5 60q-18 -18 -86 -92q-12 -14 -42 -14.5 t-30 7zM123 281q0 -104 45 -168q547 575 932 938q-84 53 -249 53t-340 -139.5t-281.5 -331.5t-106.5 -352zM205 74q80 -68 267 -68t364.5 127t275.5 316.5t98 379.5q0 119 -61 183q-416 -395 -944 -938z" />
<glyph unicode="&#xd9;" horiz-adv-x="1251" d="M14 989q0 129 215 129l209 -8q289 2 471 2l-26 -31q-100 0 -146 -57q-115 -150 -261 -461t-165 -465v-12q0 -59 74 -59l80 24q111 55 231 180q295 307 504 768q4 6 15.5 36t21.5 42.5t27.5 9t35 -3.5t46 4.5t75.5 47.5q12 8 25 -2v-7q-72 -57 -143 -168 q-305 -463 -377 -686q-29 -92 -29 -151q0 -109 94 -109q18 0 39 4q68 10 184 127q63 57 146 162q14 -27 -25 -76q-119 -147 -248 -231q-78 -51 -141 -51q-80 0 -110 49q-23 31 -23 63.5t6 79.5q12 92 76 250q4 6 4 8q-57 -68 -191.5 -197.5t-195.5 -174.5q-113 -78 -213 -78 h-6q-63 0 -88 26.5t-25 57.5q0 72 185 424q111 211 139 284.5t49 132.5q41 106 41 191h-180q-322 0 -322 -148q0 -53 27 -88l-23 -16q-2 4 -28 47q-51 82 -52.5 100.5t-1.5 30.5zM881 1457q0 28 6 28q18 0 106 -77t162 -132l2 -14q-25 4 -141.5 72.5t-126.5 86.5q-8 8 -8 36 z" />
<glyph unicode="&#xda;" horiz-adv-x="1251" d="M14 989q0 129 215 129l209 -8q289 2 471 2l-26 -31q-100 0 -146 -57q-115 -150 -261 -461t-165 -465v-12q0 -59 74 -59l80 24q111 55 231 180q295 307 504 768q4 6 15.5 36t21.5 42.5t27.5 9t35 -3.5t46 4.5t75.5 47.5q12 8 25 -2v-7q-72 -57 -143 -168 q-305 -463 -377 -686q-29 -92 -29 -151q0 -109 94 -109q18 0 39 4q68 10 184 127q63 57 146 162q14 -27 -25 -76q-119 -147 -248 -231q-78 -51 -141 -51q-80 0 -110 49q-23 31 -23 63.5t6 79.5q12 92 76 250q4 6 4 8q-57 -68 -191.5 -197.5t-195.5 -174.5q-113 -78 -213 -78 h-6q-63 0 -88 26.5t-25 57.5q0 72 185 424q111 211 139 284.5t49 132.5q41 106 41 191h-180q-322 0 -322 -148q0 -53 27 -88l-23 -16q-2 4 -28 47q-51 82 -52.5 100.5t-1.5 30.5zM993 1262q-2 0 2 14q74 55 162.5 132t106.5 77q6 0 6 -27.5t-8 -36.5q-10 -18 -127 -86.5 t-142 -72.5z" />
<glyph unicode="&#xdb;" horiz-adv-x="1251" d="M14 989q0 129 215 129l209 -8q289 2 471 2l-26 -31q-100 0 -146 -57q-115 -150 -261 -461t-165 -465v-12q0 -59 74 -59l80 24q111 55 231 180q295 307 504 768q4 6 15.5 36t21.5 42.5t27.5 9t35 -3.5t46 4.5t75.5 47.5q12 8 25 -2v-7q-72 -57 -143 -168 q-305 -463 -377 -686q-29 -92 -29 -151q0 -109 94 -109q18 0 39 4q68 10 184 127q63 57 146 162q14 -27 -25 -76q-119 -147 -248 -231q-78 -51 -141 -51q-80 0 -110 49q-23 31 -23 63.5t6 79.5q12 92 76 250q4 6 4 8q-57 -68 -191.5 -197.5t-195.5 -174.5q-113 -78 -213 -78 h-6q-63 0 -88 26.5t-25 57.5q0 72 185 424q111 211 139 284.5t49 132.5q41 106 41 191h-180q-322 0 -322 -148q0 -53 27 -88l-23 -16q-2 4 -28 47q-51 82 -52.5 100.5t-1.5 30.5zM893 1276q150 100 231 172h25q49 -82 139 -143q27 -16 37 -17v-6l-51 -20q-47 0 -158 133 q0 6 -12 0q-23 -20 -88.5 -64.5t-85 -51.5t-37.5 -3z" />
<glyph unicode="&#xdc;" horiz-adv-x="1251" d="M14 989q0 129 215 129l209 -8q289 2 471 2l-26 -31q-100 0 -146 -57q-115 -150 -261 -461t-165 -465v-12q0 -59 74 -59l80 24q111 55 231 180q295 307 504 768q4 6 15.5 36t21.5 42.5t27.5 9t35 -3.5t46 4.5t75.5 47.5q12 8 25 -2v-7q-72 -57 -143 -168 q-305 -463 -377 -686q-29 -92 -29 -151q0 -109 94 -109q18 0 39 4q68 10 184 127q63 57 146 162q14 -27 -25 -76q-119 -147 -248 -231q-78 -51 -141 -51q-80 0 -110 49q-23 31 -23 63.5t6 79.5q12 92 76 250q4 6 4 8q-57 -68 -191.5 -197.5t-195.5 -174.5q-113 -78 -213 -78 h-6q-63 0 -88 26.5t-25 57.5q0 72 185 424q111 211 139 284.5t49 132.5q41 106 41 191h-180q-322 0 -322 -148q0 -53 27 -88l-23 -16q-2 4 -28 47q-51 82 -52.5 100.5t-1.5 30.5zM907 1378q0 10 38 31t40 21t22.5 -12.5t33 -12.5t21.5 2t9 -8q-2 -8 -12 -21q-58 -47 -76 -47 q-76 0 -76 47zM1145 1378q0 10 38 31t40 21t22.5 -12.5t32.5 -12.5t21.5 2t9.5 -8q-2 -8 -13 -21q-57 -47 -75 -47q-76 0 -76 47z" />
<glyph unicode="&#xdd;" horiz-adv-x="925" d="M16 182q0 31 10.5 29t10.5 -18q0 -92 47 -143.5t123 -51.5q209 0 430 317q-25 -14 -38 -14t-19 2q-8 4 4 37q72 219 71.5 428t-75.5 295h-50q-319 0 -319 -148q0 -35 25 -88l-21 -16q-80 139 -81 151.5t-1 20.5q0 59 31 88q53 47 182 47l209 -8q145 2 328 2l-43 -53 q-72 0 -224 4q129 -84 129 -354q0 -133 -47 -295q14 20 154.5 231t210.5 291t103.5 114.5t100 77.5t119.5 43q57 0 84 -55q10 -23 10.5 -41t-3.5 -33q-8 -35 -27 -71q-4 -10 -11 -8t-4 15t3 36.5t-13 50.5q-18 43 -65 43q-98 0 -256 -182q-178 -207 -322 -447 q-43 -72 -136 -234.5t-186 -243.5t-220 -81q-66 0 -121 37q-102 66 -103 225zM958 1262q-2 0 3 14q74 55 162 132t106 77q6 0 6 -27.5t-8 -36.5q-10 -18 -127 -86.5t-142 -72.5z" />
<glyph unicode="&#xde;" horiz-adv-x="1107" d="M-115 -274q0 4 4 6q84 14 131 98q92 156 161 284t143.5 264t255 469t200.5 333q12 4 76 32q125 53 164 53.5t44 -11t-7.5 -14.5t-30.5 -3t-29 -2q-35 -6 -77 -49q-70 -63 -230 -318q201 0 270.5 -24.5t100.5 -69.5q45 -68 45 -119q0 -141 -129 -260q-80 -74 -176 -112 q-129 -53 -367 -54q-57 0 -88 7q-180 -338 -180 -429q0 -10 2 -18q8 -18 -25 -6q-31 8 -54 8t-34.5 -6t-54.5 -33q-63 -39 -89 -39t-26 13zM371 279q29 -6 64.5 -6.5t102 8t156.5 31t170 85t111 152.5q18 51 18 97t-16 87q-41 102 -164 103q-115 0 -149 -50 q-23 -31 -261 -448z" />
<glyph unicode="&#xdf;" horiz-adv-x="944" d="M-616 -337q0 9 2 20.5t4 20.5t8 27.5t8 25.5t11.5 30t12.5 31t10 10t11 -4t-5 -27.5t-9 -50.5t10 -53q45 -102 203 -103q57 0 110 29q199 104 349 479q39 98 83 219t70 189h-47q-2 0 -45 -6l-4 2q4 20 39 38.5t57 18.5h25q168 418 348 580q121 106 274 112 q123 0 202 -68.5t79 -165.5t-80 -202q-102 -117 -293 -137q-123 -20 -88 -94q29 -55 85 -114.5t69 -76.5q59 -78 59 -150.5t-53 -142.5q-84 -111 -238 -141q-41 -8 -80 -8q-113 0 -180 80q-47 57 -47 99t16.5 89t49.5 76q14 4 18 -3t-2 -18q-14 -23 -14 -71 q0 -88 65.5 -145.5t156.5 -57.5t142 43q59 49 60 154q0 104 -111 237q-82 100 -82 148q0 68 115 110q213 47 299 160q61 80 61 165t-51 144.5t-165 59.5t-215 -97.5t-188 -275.5t-181.5 -426t-130 -327t-74.5 -148.5t-97.5 -147.5t-119 -133t-140.5 -92t-162 -37 q-170 0 -206 103q-4 14 -4 23z" />
<glyph unicode="&#xe0;" d="M6 41q0 10 2 14q14 117 94 246q160 258 332 258h236q10 0 10 -8q0 -16 -18 -16q-29 0 -72 -67t-113.5 -205t-70.5 -174t28 -36q47 0 131 82q45 47 67.5 74t30 35t48.5 59q4 -4 4 -16.5t-29 -50.5q-182 -242 -338 -242q-49 0 -49 39q0 72 80 196q-72 -76 -164 -154.5 t-172 -78.5q-37 0 -37 45zM111 90q0 -25 16 -24q59 0 212 181t153 247q0 39 -52.5 38.5t-116 -59.5t-138 -191t-74.5 -192zM334 881.5q0 27.5 6 27.5q18 0 106.5 -76.5t161.5 -132.5l2 -14q-25 4 -141.5 73t-126.5 87q-8 8 -8 35.5z" />
<glyph unicode="&#xe1;" d="M6 41q0 10 2 14q14 117 94 246q160 258 332 258h236q10 0 10 -8q0 -16 -18 -16q-29 0 -72 -67t-113.5 -205t-70.5 -174t28 -36q47 0 131 82q45 47 67.5 74t30 35t48.5 59q4 -4 4 -16.5t-29 -50.5q-182 -242 -338 -242q-49 0 -49 39q0 72 80 196q-72 -76 -164 -154.5 t-172 -78.5q-37 0 -37 45zM111 90q0 -25 16 -24q59 0 212 181t153 247q0 39 -52.5 38.5t-116 -59.5t-138 -191t-74.5 -192zM496 686q-2 0 2 14q74 55 162 132t106 77q6 0 6 -27.5t-8 -35.5q-10 -18 -127 -87t-141 -73z" />
<glyph unicode="&#xe2;" d="M6 41q0 10 2 14q14 117 94 246q160 258 332 258h236q10 0 10 -8q0 -16 -18 -16q-29 0 -72 -67t-113.5 -205t-70.5 -174t28 -36q47 0 131 82q45 47 67.5 74t30 35t48.5 59q4 -4 4 -16.5t-29 -50.5q-182 -242 -338 -242q-49 0 -49 39q0 72 80 196q-72 -76 -164 -154.5 t-172 -78.5q-37 0 -37 45zM111 90q0 -25 16 -24q59 0 212 181t153 247q0 39 -52.5 38.5t-116 -59.5t-138 -191t-74.5 -192zM324 700q150 100 231 172h25q49 -82 139 -143q27 -16 37 -16v-6l-51 -21q-47 0 -158 133q0 6 -12 0q-23 -20 -88.5 -64t-85 -51.5t-37.5 -3.5z" />
<glyph unicode="&#xe3;" d="M6 41q0 10 2 14q14 117 94 246q160 258 332 258h236q10 0 10 -8q0 -16 -18 -16q-29 0 -72 -67t-113.5 -205t-70.5 -174t28 -36q47 0 131 82q45 47 67.5 74t30 35t48.5 59q4 -4 4 -16.5t-29 -50.5q-182 -242 -338 -242q-49 0 -49 39q0 72 80 196q-72 -76 -164 -154.5 t-172 -78.5q-37 0 -37 45zM111 90q0 -25 16 -24q59 0 212 181t153 247q0 39 -52.5 38.5t-116 -59.5t-138 -191t-74.5 -192zM379 733q10 33 41 60.5t63.5 27.5t83.5 -20q63 -25 104.5 -25t73.5 45h21q-12 -43 -40 -72.5t-62.5 -29.5t-99 25.5t-104.5 25.5t-57 -37h-24z" />
<glyph unicode="&#xe4;" d="M6 41q0 10 2 14q14 117 94 246q160 258 332 258h236q10 0 10 -8q0 -16 -18 -16q-29 0 -72 -67t-113.5 -205t-70.5 -174t28 -36q47 0 131 82q45 47 67.5 74t30 35t48.5 59q4 -4 4 -16.5t-29 -50.5q-182 -242 -338 -242q-49 0 -49 39q0 72 80 196q-72 -76 -164 -154.5 t-172 -78.5q-37 0 -37 45zM111 90q0 -25 16 -24q59 0 212 181t153 247q0 39 -52.5 38.5t-116 -59.5t-138 -191t-74.5 -192zM360 803q0 6 54 39l26 12q41 -25 53.5 -25t21.5 2.5t9 -8.5q-2 -8 -12 -20q-58 -47 -76 -47q-76 0 -76 47zM598 803q0 6 53 39l27 12q41 -25 53 -25 t21.5 2.5t9.5 -8.5q-2 -8 -12 -20q-58 -47 -76 -47q-76 0 -76 47z" />
<glyph unicode="&#xe5;" d="M6 41q0 10 2 14q14 117 94 246q160 258 332 258h236q10 0 10 -8q0 -16 -18 -16q-29 0 -72 -67t-113.5 -205t-70.5 -174t28 -36q47 0 131 82q45 47 67.5 74t30 35t48.5 59q4 -4 4 -16.5t-29 -50.5q-182 -242 -338 -242q-49 0 -49 39q0 72 80 196q-72 -76 -164 -154.5 t-172 -78.5q-37 0 -37 45zM111 90q0 -25 16 -24q59 0 212 181t153 247q0 39 -52.5 38.5t-116 -59.5t-138 -191t-74.5 -192zM487 733q0 31 30 76t58 51q35 53 97 53q35 0 49 -22.5t14 -36.5q0 -70 -62.5 -121t-107.5 -51q-78 0 -78 51zM551 739.5q0 -26.5 22 -26.5 q41 0 78 37q43 47 43.5 90t-30.5 43q-20 0 -54 -21l17 -8q-8 -12 -42 -50t-34 -64.5z" />
<glyph unicode="&#xe6;" horiz-adv-x="813" d="M6 41q0 10 2 14q14 117 94 246t179 205q66 49 153 53l225 10q10 0 19.5 -4t1.5 -16q51 18 88 18q94 0 94 -86q0 -90 -70.5 -136t-159.5 -73.5t-157 -27.5q-31 -80 -31 -148.5t84 -68.5q31 0 80 18q80 27 166 102.5t141 147.5q6 -6 6.5 -16.5t-14.5 -30.5 q-76 -104 -188.5 -184t-229.5 -80q-152 0 -151 112q0 49 31 123q-207 -223 -326 -223q-37 0 -37 45zM111 90q0 -25 16 -24q59 0 212 181t153 247q0 39 -52.5 38.5t-116 -59.5t-138 -191t-74.5 -192zM492 285h45.5t80.5 14q117 35 152 131q10 29 10 54.5t-16 36.5t-29 11 q-132 -1 -243 -247z" />
<glyph unicode="&#xe7;" horiz-adv-x="487" d="M-113 -424q0 12 19 12q131 0 178 52q27 31 27 59.5t-34 82.5t-34 85q0 78 74 119q-66 8 -88 49q-12 23 -12.5 47t12.5 68q29 88 101.5 190t174.5 162q109 68 184 67q41 0 62.5 -17t21.5 -44q0 -61 -26 -111q-10 -23 -27 -20q-6 2 -3 14t3 36t-12 56q-18 51 -54 51.5 t-79 -23.5t-64 -46q-125 -129 -176 -293q-14 -53 -14 -87t29 -42q43 -16 126.5 11.5t177 104t140.5 142.5q4 -4 4 -15.5t-20 -41.5q-68 -92 -182.5 -171t-217.5 -87q-63 -39 -63 -92q0 -29 35.5 -78t35.5 -88v-13q-14 -76 -104 -115.5t-182 -39.5q-16 0 -13 16z" />
<glyph unicode="&#xe8;" horiz-adv-x="509" d="M35 94q0 88 94 244q53 84 151.5 156.5t188.5 72.5t90 -86q0 -90 -70.5 -136t-159.5 -73.5t-157 -27.5q-31 -80 -31 -148.5t84 -68.5q31 0 80 18q80 27 166 102.5t141 147.5q6 -6 6 -16.5t-14 -30.5q-76 -104 -188.5 -184t-229.5 -80q-152 0 -151 110zM188 285h46t81 14 q117 35 152 131q10 29 10 54.5t-16.5 36.5t-28.5 11q-133 -1 -244 -247zM299 881.5q0 27.5 6 27.5q18 0 106.5 -76.5t161.5 -132.5l2 -14q-25 4 -141.5 73t-126.5 87q-8 8 -8 35.5z" />
<glyph unicode="&#xe9;" horiz-adv-x="509" d="M35 94q0 88 94 244q53 84 151.5 156.5t188.5 72.5t90 -86q0 -90 -70.5 -136t-159.5 -73.5t-157 -27.5q-31 -80 -31 -148.5t84 -68.5q31 0 80 18q80 27 166 102.5t141 147.5q14 -14 -8 -47q-76 -104 -188.5 -184t-229.5 -80q-152 0 -151 110zM188 285h46t81 14 q117 35 152 131q10 29 10 54.5t-16.5 36.5t-28.5 11q-133 -1 -244 -247zM492 686q-2 0 2 14q74 55 162 132t106 77q6 0 6 -27.5t-8 -35.5q-10 -18 -127 -87t-141 -73z" />
<glyph unicode="&#xea;" horiz-adv-x="509" d="M35 94q0 88 94 244q53 84 151.5 156.5t188.5 72.5t90 -86q0 -90 -70.5 -136t-159.5 -73.5t-157 -27.5q-31 -80 -31 -148.5t84 -68.5q31 0 80 18q80 27 166 102.5t141 147.5q14 -14 -8 -47q-76 -104 -188.5 -184t-229.5 -80q-152 0 -151 110zM188 285h46t81 14 q117 35 152 131q10 29 10 54.5t-16.5 36.5t-28.5 11q-133 -1 -244 -247zM289 700q150 100 231 172h25q49 -82 139 -143q27 -16 37 -16v-6l-51 -21q-47 0 -158 133q0 6 -12 0q-23 -20 -88.5 -64t-85 -51.5t-37.5 -3.5z" />
<glyph unicode="&#xeb;" horiz-adv-x="509" d="M35 94q0 88 94 244q53 84 151.5 156.5t188.5 72.5t90 -86q0 -90 -70.5 -136t-159.5 -73.5t-157 -27.5q-31 -80 -31 -148.5t84 -68.5q31 0 80 18q80 27 166 102.5t141 147.5q14 -14 -8 -47q-76 -104 -188.5 -184t-229.5 -80q-152 0 -151 110zM188 285h46t81 14 q117 35 152 131q10 29 10 54.5t-16.5 36.5t-28.5 11q-133 -1 -244 -247zM319 803q0 6 54 39l26 12q41 -25 53.5 -25t21.5 2.5t9 -8.5q-2 -8 -12 -20q-58 -47 -76 -47q-76 0 -76 47zM557 803q0 6 53 39l27 12q41 -25 53 -25t21.5 2.5t9.5 -8.5q-2 -8 -12 -20q-58 -47 -76 -47 q-76 0 -76 47z" />
<glyph unicode="&#xec;" horiz-adv-x="393" d="M66 233q0 16 10 29q145 180 223 293q102 14 122.5 32.5t22.5 2.5q0 -8 -9 -19.5t-167 -308.5q-70 -131 -69 -180q0 -29 28 -29q63 0 230 197l45 51q25 -25 -121 -180q-39 -43 -107.5 -85t-125 -42t-56.5 39q0 37 21 82q14 33 163 348q-109 -117 -196 -234q-14 -20 -14 4z M213 881.5q0 27.5 6 27.5q18 0 106.5 -76.5t161.5 -132.5l2 -14q-25 4 -141.5 73t-126.5 87q-8 8 -8 35.5z" />
<glyph unicode="&#xed;" horiz-adv-x="393" d="M66 233q0 16 10 29q145 180 223 293q102 14 122.5 32.5t22.5 2.5q0 -8 -9 -19.5t-167 -308.5q-70 -131 -69 -180q0 -29 28 -29q63 0 230 197l45 51q25 -25 -121 -180q-39 -43 -107.5 -85t-125 -42t-56.5 39q0 37 21 82q14 33 163 348q-109 -117 -196 -234q-14 -20 -14 4z M389 686q-2 0 2 14q74 55 162 132t106 77q6 0 6.5 -27.5t-8.5 -35.5q-10 -18 -126.5 -87t-141.5 -73z" />
<glyph unicode="&#xee;" horiz-adv-x="393" d="M66 233q0 16 10 29q145 180 223 293q102 14 122.5 32.5t22.5 2.5q0 -8 -9 -19.5t-167 -308.5q-70 -131 -69 -180q0 -29 28 -29q63 0 230 197l45 51q25 -25 -121 -180q-39 -43 -107.5 -85t-125 -42t-56.5 39q0 37 21 82q14 33 163 348q-109 -117 -196 -234q-14 -20 -14 4z M211 700q150 100 231 172h25q49 -82 139 -143q27 -16 37 -16v-6l-51 -21q-47 0 -158 133q0 6 -12 0q-23 -20 -88.5 -64t-85 -51.5t-37.5 -3.5z" />
<glyph unicode="&#xef;" horiz-adv-x="393" d="M66 233q0 16 10 29q145 180 223 293q102 14 122.5 32.5t22.5 2.5q0 -8 -9 -19.5t-167 -308.5q-70 -131 -69 -180q0 -29 28 -29q63 0 230 197l45 51q25 -25 -121 -180q-39 -43 -107.5 -85t-125 -42t-56.5 39q0 37 21 82q14 33 163 348q-109 -117 -196 -234q-14 -20 -14 4z M229 803q0 6 54 39l26 12q41 -25 53.5 -25t21.5 2.5t9 -8.5q-2 -8 -12 -20q-58 -47 -76 -47q-76 0 -76 47zM467 803q0 6 37 28.5t40 22.5t23.5 -12.5t32.5 -12.5t21.5 2.5t9.5 -8.5q-2 -8 -13 -20q-57 -47 -75 -47q-76 0 -76 47z" />
<glyph unicode="&#xf0;" horiz-adv-x="675" d="M6 37q0 14 2 18q14 115 95 246t178 205q66 53 157 53h94q53 123 54 266q0 53 -6 109q-102 -55 -154 -92l-2 16q6 63 25 74q31 8 120 53q-31 137 -120 172q-27 10 -19 23q12 23 52 22.5t89.5 -36.5t77.5 -142q35 20 83.5 49t62.5 37q4 2 4 -25.5t-11.5 -43t-23.5 -21.5 q-66 -27 -105 -45q10 -66 11 -135q0 -209 -96.5 -401.5t-286.5 -344.5q-129 -98 -215 -98q-23 0 -44.5 13.5t-21.5 27.5zM111 90q0 -25 16 -24q70 0 228.5 157t158.5 266q0 39 -47 39q-74 0 -160 -77.5t-141 -181t-55 -179.5z" />
<glyph unicode="&#xf1;" horiz-adv-x="675" d="M66 233q0 16 10 29q145 180 223 293q102 14 122.5 32.5t22.5 2.5q0 -8 -13 -23.5t-161 -290.5q98 129 230 228q84 61 137 61t53 -35q0 -27 -33.5 -75.5t-101.5 -185t-68 -172.5t30 -36t78 38t86 81t101 121q4 -6 4 -18.5t-26 -46.5q-104 -141 -176 -196.5t-129 -55.5 q-66 0 -66 64.5t66.5 196.5t107.5 222q20 43 -28 16q-233 -145 -363 -487q-12 0 -48 -13.5t-42 -13.5q-8 0 1 19.5t34.5 81t62.5 155.5q72 180 96 238q-109 -117 -196 -234q-14 -20 -14 4zM399 733q10 33 41 60.5t64 27.5t84 -20q63 -25 104 -25t74 45h20 q-12 -43 -39.5 -72.5t-62.5 -29.5t-99.5 25.5t-104.5 25.5t-56 -37h-25z" />
<glyph unicode="&#xf2;" horiz-adv-x="542" d="M18 68q0 117 113 272q72 102 174 162q109 68 184 67q82 0 82 -80q0 -111 -110 -270q-43 -57 -78 -90q135 0 250 152q10 10 10 -7.5t-8 -27.5q-104 -145 -238 -146q-18 0 -37 2q-115 -106 -258 -106q-84 0 -84 72zM115 101.5q0 -70.5 37 -70.5q29 0 63.5 19.5t54.5 39.5 q63 68 133 183.5t70 213.5q0 49 -37 50q-12 0 -47 -13.5t-87 -68t-99 -138.5q-88 -145 -88 -215.5zM344 881.5q0 27.5 6 27.5q18 0 106.5 -76.5t161.5 -132.5l3 -14q-25 4 -142 73t-127 87q-8 8 -8 35.5z" />
<glyph unicode="&#xf3;" horiz-adv-x="542" d="M18 68q0 117 113 272q72 102 174 162q109 68 184 67q82 0 82 -80q0 -111 -110 -270q-43 -57 -78 -90q135 0 250 152q10 10 10 -7.5t-8 -27.5q-104 -145 -238 -146q-18 0 -37 2q-115 -106 -258 -106q-84 0 -84 72zM115 101.5q0 -70.5 37 -70.5q29 0 63.5 19.5t54.5 39.5 q63 68 133 183.5t70 213.5q0 49 -37 50q-12 0 -47 -13.5t-87 -68t-99 -138.5q-88 -145 -88 -215.5zM502 686q-2 0 2 14q74 55 162 132t106 77q6 0 6 -27.5t-8 -35.5q-10 -18 -127 -87t-141 -73z" />
<glyph unicode="&#xf4;" horiz-adv-x="542" d="M18 68q0 117 113 272q72 102 174 162q109 68 184 67q82 0 82 -80q0 -111 -110 -270q-43 -57 -78 -90q135 0 250 152q10 10 10 -7.5t-8 -27.5q-104 -145 -238 -146q-18 0 -37 2q-115 -106 -258 -106q-84 0 -84 72zM115 101.5q0 -70.5 37 -70.5q29 0 63.5 19.5t54.5 39.5 q63 68 133 183.5t70 213.5q0 49 -37 50q-12 0 -47 -13.5t-87 -68t-99 -138.5q-88 -145 -88 -215.5zM324 700q150 100 231 172h25q49 -82 139 -143q27 -16 37 -16v-6l-51 -21q-47 0 -158 133q0 6 -12 0q-23 -20 -88.5 -64t-85 -51.5t-37.5 -3.5z" />
<glyph unicode="&#xf5;" horiz-adv-x="542" d="M18 68q0 117 113 272q72 102 174 162q109 68 184 67q82 0 82 -80q0 -111 -110 -270q-43 -57 -78 -90q135 0 250 152q10 10 10 -7.5t-8 -27.5q-104 -145 -238 -146q-18 0 -37 2q-115 -106 -258 -106q-84 0 -84 72zM115 101.5q0 -70.5 37 -70.5q29 0 63.5 19.5t54.5 39.5 q63 68 133 183.5t70 213.5q0 49 -37 50q-12 0 -47 -13.5t-87 -68t-99 -138.5q-88 -145 -88 -215.5zM365 733q10 33 40.5 60.5t63.5 27.5t84 -20q63 -25 104 -25t74 45h21q-13 -43 -40.5 -72.5t-62.5 -29.5t-99.5 25.5t-104 25.5t-56.5 -37h-24z" />
<glyph unicode="&#xf6;" horiz-adv-x="542" d="M18 68q0 117 113 272q72 102 174 162q109 68 184 67q82 0 82 -80q0 -111 -110 -270q-43 -57 -78 -90q135 0 250 152q10 10 10 -7.5t-8 -27.5q-104 -145 -238 -146q-18 0 -37 2q-115 -106 -258 -106q-84 0 -84 72zM115 101.5q0 -70.5 37 -70.5q29 0 63.5 19.5t54.5 39.5 q63 68 133 183.5t70 213.5q0 49 -37 50q-12 0 -47 -13.5t-87 -68t-99 -138.5q-88 -145 -88 -215.5zM381 803q0 6 53 39l27 12q41 -25 53 -25t21.5 2.5t9.5 -8.5q-2 -8 -13 -20q-57 -47 -75 -47q-76 0 -76 47zM618 801q0 4 10.5 11t18.5 13t16.5 11.5t16.5 9.5q12 8 18 8 q41 -25 53.5 -25t21.5 2.5t9 -8.5q-2 -8 -12 -20q-58 -47 -76 -47q-41 0 -76 45z" />
<glyph unicode="&#xf7;" horiz-adv-x="573" d="M23 289q0 6 27.5 34.5t39.5 28.5l260 -10q168 0 252 3t84 1q0 -6 -26.5 -33.5t-38.5 -27.5l-277 10q-227 0 -274 -4t-47 -2zM215 76q-2 2 15.5 16t39 26.5t23.5 12.5q41 -25 53 -25t21.5 1.5t11.5 -6t-33 -39t-63.5 -30.5t-67.5 44zM362 588q-2 2 15.5 16t39 26.5 t23.5 12.5q41 -25 53.5 -25t22.5 2.5t10 -8.5q-2 -8 -14 -20q-57 -47 -76 -47h-2q-33 0 -72 43z" />
<glyph unicode="&#xf8;" horiz-adv-x="542" d="M18 68q0 117 113 272q72 102 174 162q70 43 141 61l41 60q4 6 19 6q27 0 39 -6q-16 -18 -39 -56q66 -8 65 -78q0 -111 -110 -270q-43 -57 -78 -90q135 0 250 152q10 10 10 -7.5t-8 -27.5q-104 -145 -238 -146q-18 0 -37 2q-104 -94 -227 -104l-27 -45q-4 -8 -12 -8 q-18 0 -22 8l24 43q-78 4 -78 72zM115 90q0 -35 10 -45q174 297 303 492q-117 -27 -225 -220q-88 -145 -88 -227zM154 31h4q53 0 114.5 63.5t131 179t69.5 213.5q0 16 -2 29q-158 -229 -317 -485z" />
<glyph unicode="&#xf9;" horiz-adv-x="804" d="M66 233q0 16 10 29q84 113 136 171.5t57 64.5t22.5 21.5t27.5 21.5q41 25 87.5 24.5t46.5 -35.5q0 -27 -35 -78t-105.5 -189t-70.5 -174t28 -36q39 0 123 80q129 123 266 385q18 33 25 33h29q66 0 102 18q8 4 10 -6q1 -16 -26 -24q-61 -18 -140 -189.5t-79 -234t30 -62.5 q37 0 121 66q90 70 162 164q16 18 18 20q6 -12 4 -25.5t-26 -41.5q-180 -242 -338 -242q-72 0 -72 55q0 37 26.5 114t49.5 120q-201 -289 -371 -289q-49 0 -49 39q0 49 80 209q18 37 49 100.5t42 83.5t11 29.5t-6 9.5q-14 0 -79.5 -59.5t-151.5 -176.5q-14 -20 -14 4z M420 881.5q0 27.5 6 27.5q18 0 106.5 -76.5t161.5 -132.5l2 -14q-25 4 -141.5 73t-126.5 87q-8 8 -8 35.5z" />
<glyph unicode="&#xfa;" horiz-adv-x="804" d="M66 233q0 16 10 29q84 113 136 171.5t57 64.5t22.5 21.5t27.5 21.5q41 25 87.5 24.5t46.5 -35.5q0 -27 -35 -78t-105.5 -189t-70.5 -174t28 -36q39 0 123 80q129 123 266 385q18 33 25 33h29q66 0 102 18q8 4 10 -6q1 -16 -26 -24q-61 -18 -140 -189.5t-79 -234t30 -62.5 q37 0 121 66q90 70 162 164q16 18 18 20q6 -12 4 -25.5t-26 -41.5q-180 -242 -338 -242q-72 0 -72 55q0 37 26.5 114t49.5 120q-201 -289 -371 -289q-49 0 -49 39q0 49 80 209q18 37 49 100.5t42 83.5t11 29.5t-6 9.5q-14 0 -79.5 -59.5t-151.5 -176.5q-14 -20 -14 4z M594 686q-2 0 2 14q74 55 162 132t106 77q6 0 6 -27.5t-8 -35.5q-10 -18 -127 -87t-141 -73z" />
<glyph unicode="&#xfb;" horiz-adv-x="804" d="M66 233q0 16 10 29q84 113 136 171.5t57 64.5t22.5 21.5t27.5 21.5q41 25 87.5 24.5t46.5 -35.5q0 -27 -35 -78t-105.5 -189t-70.5 -174t28 -36q39 0 123 80q129 123 266 385q18 33 25 33h29q66 0 102 18q8 4 10 -6q1 -16 -26 -24q-61 -18 -140 -189.5t-79 -234t30 -62.5 q37 0 121 66q90 70 162 164q16 18 18 20q6 -12 4 -25.5t-26 -41.5q-180 -242 -338 -242q-72 0 -72 55q0 37 26.5 114t49.5 120q-201 -289 -371 -289q-49 0 -49 39q0 49 80 209q18 37 49 100.5t42 83.5t11 29.5t-6 9.5q-14 0 -79.5 -59.5t-151.5 -176.5q-14 -20 -14 4z M434 700q150 100 232 172h24q49 -82 139 -143q27 -16 37 -16v-6l-51 -21q-47 0 -158 133q0 6 -12 0q-23 -20 -88 -64t-84.5 -51.5t-38.5 -3.5z" />
<glyph unicode="&#xfc;" horiz-adv-x="804" d="M66 233q0 16 10 29q84 113 136 171.5t57 64.5t22.5 21.5t27.5 21.5q41 25 87.5 24.5t46.5 -35.5q0 -27 -35 -78t-105.5 -189t-70.5 -174t28 -36q39 0 123 80q129 123 266 385q18 33 25 33h29q66 0 102 18q8 4 10 -6q1 -16 -26 -24q-61 -18 -140 -189.5t-79 -234t30 -62.5 q37 0 121 66q90 70 162 164q16 18 18 20q6 -12 4 -25.5t-26 -41.5q-180 -242 -338 -242q-72 0 -72 55q0 37 26.5 114t49.5 120q-201 -289 -371 -289q-49 0 -49 39q0 49 80 209q18 37 49 100.5t42 83.5t11 29.5t-6 9.5q-14 0 -79.5 -59.5t-151.5 -176.5q-14 -20 -14 4z M442 803q0 6 54 39l26 12q41 -25 53.5 -25t21.5 2.5t9 -8.5q-2 -8 -12 -20q-58 -47 -76 -47q-76 0 -76 47zM680 803q0 10 38 30.5t40 20.5t22.5 -12.5t32.5 -12.5t21.5 2.5t9.5 -8.5q-2 -8 -13 -20q-57 -47 -75 -47q-76 0 -76 47z" />
<glyph unicode="&#xfd;" horiz-adv-x="704" d="M-420 -422q0 31 25 31q4 0 4 -4l-4 -51q0 -92 58 -142.5t141 -50.5t161 31q174 76 296 240.5t224 402.5q49 121 105 284q-96 -131 -176 -208q-121 -117 -230 -117q-49 0 -49 39q0 49 80 209q18 37 49 100.5t42 83.5t11 29.5t-6 9.5q-14 0 -79.5 -59.5t-151.5 -176.5 q-12 -18 -14.5 1.5t10.5 31.5q84 113 136 171.5t57 64.5t22.5 21.5t27.5 21.5q41 25 87.5 24.5t46.5 -35.5q0 -27 -35 -78t-105.5 -189t-70.5 -174t28 -36q39 0 133.5 90t173 224.5t95.5 142.5q88 45 108.5 49t40 4t19.5 -14t-19 -14q-43 0 -69 -39q-49 -70 -277 -613 q-57 -135 -112.5 -232t-147.5 -194q-166 -174 -356 -174q-82 0 -154 37q-125 66 -125 223v35zM604 686q-2 0 2 14q74 55 162 132t106 77q6 0 6.5 -27.5t-8.5 -35.5q-10 -18 -126.5 -87t-141.5 -73z" />
<glyph unicode="&#xfe;" horiz-adv-x="745" d="M-426 -664q0 8 8 19q63 74 199.5 326.5t273.5 549.5q357 771 631 961q41 33 176 33q23 0 23 -9.5t-68 -27.5q-96 -25 -221 -178q-219 -268 -389 -658q-2 -8 2 -8q213 213 313 213q35 0 35 -49v-19q-25 -170 -165 -338.5t-302 -168.5q-25 0 -53 6q-37 -86 -108.5 -229.5 t-98.5 -192.5q-74 -133 -127 -207q-27 -37 -98 -37q-31 0 -31 14zM78 57q0 -41 51 -41t123 72q53 49 129 180.5t76 192.5q0 27 -19 26q-31 0 -100.5 -65.5t-112.5 -116.5q-147 -168 -147 -248z" />
<glyph unicode="&#xff;" horiz-adv-x="704" d="M-420 -422q0 31 25 31q4 0 4 -4l-4 -51q0 -92 58 -142.5t141 -50.5t161 31q174 76 296 240.5t224 402.5q49 121 105 284q-96 -131 -176 -208q-121 -117 -230 -117q-49 0 -49 39q0 49 80 209q18 37 49 100.5t42 83.5t11 29.5t-6 9.5q-14 0 -79.5 -59.5t-151.5 -176.5 q-12 -18 -14.5 1.5t10.5 31.5q84 113 136 171.5t57 64.5t22.5 21.5t27.5 21.5q41 25 87.5 24.5t46.5 -35.5q0 -27 -35 -78t-105.5 -189t-70.5 -174t28 -36q39 0 133.5 90t173 224.5t95.5 142.5q88 45 108.5 49t40 4t19.5 -14t-19 -14q-43 0 -69 -39q-49 -70 -277 -613 q-57 -135 -112.5 -232t-147.5 -194q-166 -174 -356 -174q-82 0 -154 37q-125 66 -125 223v35zM451 803q0 6 36.5 28.5t39.5 22.5t23.5 -12.5t33 -12.5t21.5 2.5t9 -8.5q-2 -8 -12 -20q-58 -47 -76 -47q-76 0 -75 47zM688 803q0 6 53 39l27 12q41 -25 53.5 -25t21.5 2.5 t9 -8.5q-2 -8 -12 -20q-58 -47 -76 -47q-76 0 -76 47z" />
<glyph unicode="&#x152;" horiz-adv-x="1863" d="M14 299q0 197 138 414q70 115 166 208t237 153.5t301 60.5q410 0 463 -240q35 61 108 184q-80 0 -115.5 -5t-46 14.5t22.5 23.5q8 2 25.5 2h48.5l407 6q90 0 140 -2q92 -6 92 -61q0 -49 -51 -137q-25 -47 -47 -46q-8 0 -1 30t7 67q0 86 -66 106q-29 8 -92 8t-136 -4 t-102 -41q-63 -90 -249 -411q-8 -23 16 -23l238 -4q162 0 217 29q18 12 16 -4q-2 -33 -37 -58.5t-61 -25.5l-322 8q-49 0 -80.5 -2t-41 -19.5t-33.5 -62.5q-139 -262 -140 -338q0 -109 205 -113q428 0 629 256q8 12 12 -3t-2 -23t-45 -58.5t-53.5 -66t-44.5 -47.5 q-51 -55 -111 -74q-86 -25 -275.5 -25t-299 11.5t-146.5 30t-35 59.5q-188 -100 -395 -101q-461 0 -461 324zM123 281q0 -274 336 -275q252 0 461 193q190 338 276 485q14 65 14 145q0 274 -350 275q-174 0 -349 -139.5t-281.5 -332t-106.5 -351.5z" />
<glyph unicode="&#x153;" horiz-adv-x="851" d="M18 68q0 117 113 272q72 102 174 162q109 68 184 67q82 0 82 -80q0 -12 -4 -40q127 119 230.5 118.5t103.5 -86.5q0 -90 -70.5 -136t-159.5 -73.5t-157 -27.5q-31 -80 -31 -148.5t84 -68.5q31 0 80 18q80 27 166 102.5t141 147.5q6 -6 6.5 -16.5t-14.5 -30.5 q-76 -104 -188.5 -184t-229.5 -80q-150 0 -149 114v19q-125 -121 -277 -121q-84 0 -84 72zM115 101.5q0 -70.5 37 -70.5q29 0 63.5 19.5t54.5 39.5q63 68 133 183.5t70 213.5q0 49 -37 50q-12 0 -47 -13.5t-87 -68t-99 -138.5q-88 -145 -88 -215.5zM530 285h46t81 14 q117 35 152 131q10 29 10 54.5t-16.5 36.5t-28.5 11q-133 -1 -244 -247z" />
<glyph unicode="&#x178;" horiz-adv-x="925" d="M16 182q0 31 10.5 29t10.5 -18q0 -92 47 -143.5t123 -51.5q209 0 430 317q-25 -14 -38 -14t-19 2q-8 4 4 37q72 219 71.5 428t-75.5 295h-50q-319 0 -319 -148q0 -35 25 -88l-21 -16q-80 139 -81 151.5t-1 20.5q0 59 31 88q53 47 182 47l209 -8q145 2 328 2l-43 -53 q-72 0 -224 4q129 -84 129 -354q0 -133 -47 -295q14 20 154.5 231t210.5 291t103.5 114.5t100 77.5t119.5 43q57 0 84 -55q10 -23 10.5 -41t-3.5 -33q-8 -35 -27 -71q-4 -10 -11 -8t-4 15t3 36.5t-13 50.5q-18 43 -65 43q-98 0 -256 -182q-178 -207 -322 -447 q-43 -72 -136 -234.5t-186 -243.5t-220 -81q-66 0 -121 37q-102 66 -103 225zM793 1376q0 4 10 11.5l18 13.5t16.5 11t14.5 9q16 8 20 9q41 -25 53.5 -25t21.5 2t9 -8q-2 -8 -12 -21q-58 -47 -76 -47q-41 0 -75 45zM1030 1376q-2 2 5 8.5t19.5 14.5t24 15t19.5 11.5t10 4.5 t22.5 -12.5t33 -12.5t21.5 2t9 -8q-2 -8 -12 -21q-57 -47 -76 -47q-41 0 -76 45z" />
<glyph unicode="&#x2c6;" horiz-adv-x="577" d="M125 700q150 100 231 172h25q49 -82 139 -143q27 -16 37 -16v-6l-51 -21q-47 0 -158 133q0 6 -12 0q-23 -20 -88.5 -64t-85 -51.5t-37.5 -3.5z" />
<glyph unicode="&#x2dc;" horiz-adv-x="567" d="M158 733q10 33 40.5 60.5t63.5 27.5t84 -20q63 -25 104.5 -25t73.5 45h21q-13 -43 -40.5 -72.5t-62 -29.5t-99 25.5t-104.5 25.5t-57 -37h-24z" />
<glyph unicode="&#x2000;" horiz-adv-x="744" />
<glyph unicode="&#x2001;" horiz-adv-x="1489" />
<glyph unicode="&#x2002;" horiz-adv-x="744" />
<glyph unicode="&#x2003;" horiz-adv-x="1489" />
<glyph unicode="&#x2004;" horiz-adv-x="496" />
<glyph unicode="&#x2005;" horiz-adv-x="372" />
<glyph unicode="&#x2006;" horiz-adv-x="248" />
<glyph unicode="&#x2007;" horiz-adv-x="248" />
<glyph unicode="&#x2008;" horiz-adv-x="186" />
<glyph unicode="&#x2009;" horiz-adv-x="297" />
<glyph unicode="&#x200a;" horiz-adv-x="82" />
<glyph unicode="&#x2010;" horiz-adv-x="509" d="M154 299q0 6 19.5 29.5t27.5 23.5l133 -8q51 0 107.5 3t56.5 1t-7.5 -14t-20.5 -25.5t-21.5 -13.5t-30.5 4q-35 4 -88 4z" />
<glyph unicode="&#x2011;" horiz-adv-x="509" d="M154 299q0 6 19.5 29.5t27.5 23.5l133 -8q51 0 107.5 3t56.5 1t-7.5 -14t-20.5 -25.5t-21.5 -13.5t-30.5 4q-35 4 -88 4z" />
<glyph unicode="&#x2012;" horiz-adv-x="509" d="M154 299q0 6 19.5 29.5t27.5 23.5l133 -8q51 0 107.5 3t56.5 1t-7.5 -14t-20.5 -25.5t-21.5 -13.5t-30.5 4q-35 4 -88 4z" />
<glyph unicode="&#x2013;" horiz-adv-x="686" d="M162 299q0 4 22.5 28.5t32.5 24.5l205 -8q131 0 199.5 3t68.5 1t-10 -14q-27 -39 -45 -39q-156 8 -217 8z" />
<glyph unicode="&#x2014;" horiz-adv-x="1048" d="M152 295q0 4 22.5 28.5t32.5 24.5l399 -8q322 0 390.5 3t68.5 1q0 -6 -21.5 -29.5t-31.5 -23.5l-410 8z" />
<glyph unicode="&#x2018;" horiz-adv-x="344" d="M147 975q0 14 5 33q31 133 167 231l29 16q-6 -27 -20 -38q-76 -66 -95 -150q-4 -25 10.5 -46.5t41.5 -25.5l-9 -22q-16 -2 -49.5 -26.5t-36.5 -24.5q-43 6 -43 53z" />
<glyph unicode="&#x2019;" horiz-adv-x="344" d="M348 922q6 27 21 39q76 66 94 149q4 27 -10.5 47.5t-40.5 24.5l8 22q23 6 53.5 28.5t32.5 22.5q43 -6 43 -53q0 -14 -4 -33q-31 -133 -166 -231z" />
<glyph unicode="&#x201a;" horiz-adv-x="399" d="M178 -125q0 8 17.5 54t60.5 235q-2 25 56.5 52.5t69.5 27.5t11 -8q-23 -68 -164 -334q-18 -35 -34.5 -35t-16.5 8z" />
<glyph unicode="&#x201c;" horiz-adv-x="604" d="M197 973q0 14 4 33q27 133 166 231l30 16q-6 -27 -20 -39q-78 -66 -94 -149q-4 -25 10 -46.5t41 -25.5l-8 -22q-37 -6 -78 -47q-4 -4 -8 -4q-43 6 -43 53zM408 973q0 14 4 33q35 156 196 247q-6 -27 -20 -39q-78 -66 -94 -149q-4 -25 10 -46.5t41 -25.5l-8 -22 q-25 -2 -86 -51q-43 6 -43 53z" />
<glyph unicode="&#x201d;" horiz-adv-x="344" d="M348 922q6 27 21 39q76 66 94 149q4 27 -10.5 47.5t-40.5 24.5l8 22q23 6 53.5 28.5t32.5 22.5q43 -6 43 -53q0 -14 -4 -33q-31 -133 -166 -231zM559 922q6 27 21 39q76 66 94 149q6 27 -9.5 47.5t-41.5 24.5l8 22q31 8 45 21q37 31 41 30q43 -6 43 -53q0 -14 -4 -33 q-27 -131 -166 -231z" />
<glyph unicode="&#x201e;" horiz-adv-x="647" d="M178 -125q0 8 17.5 54t60.5 235q-2 25 56.5 52.5t69.5 27.5t11 -8q-23 -68 -164 -334q-18 -35 -34.5 -35t-16.5 8zM387 -111q33 86 76 275q-2 25 56.5 52.5t69.5 27.5t11 -8q-23 -68 -164 -334q-18 -35 -37.5 -35.5t-11.5 22.5z" />
<glyph unicode="&#x2022;" horiz-adv-x="972" d="M94 516q0 199 176 338q143 113 318.5 113t279.5 -113q82 -90 82 -209q0 -195 -176 -334q-143 -112 -317 -112t-281 112q-82 88 -82 205z" />
<glyph unicode="&#x2026;" horiz-adv-x="942" d="M68 35q0 6 36.5 28.5t39.5 22.5t23.5 -12.5t33 -12.5t21.5 2.5t10 -6t-13 -22.5q-58 -47 -76 -47q-76 0 -75 47zM401 35q0 10 38 30.5t40 20.5t22.5 -12.5t33 -12.5t22.5 2.5t10 -6t-14 -22.5q-58 -47 -76 -47q-76 0 -76 47zM760 33q-2 2 16.5 16t38 25.5t22.5 11.5 t23.5 -12.5t31.5 -12.5t21.5 2.5t10.5 -7t-33 -39t-55 -29.5q-39 0 -76 45z" />
<glyph unicode="&#x202f;" horiz-adv-x="297" />
<glyph unicode="&#x2039;" horiz-adv-x="600" d="M150 319l8 39q137 133 307 351q0 -20 -8 -54q-23 -45 -103 -144t-116 -134q-8 -10 0 -19q68 -80 113.5 -165.5t45.5 -126.5q0 -12 -4 -19q-35 -51 -39 -70h-8q2 29 -16 70q-74 172 -180 272z" />
<glyph unicode="&#x203a;" horiz-adv-x="600" d="M127 47v12.5t10 30.5q12 29 73.5 110t149.5 158q8 8 -12 36t-72.5 123t-59.5 129t1 63q117 -223 223 -351l-4 -39q-139 -109 -243 -272q-31 -39 -35 -70h-8q0 35 -23 70z" />
<glyph unicode="&#x205f;" horiz-adv-x="372" />
<glyph unicode="&#x20ac;" horiz-adv-x="1011" d="M41 335q0 5 24.5 30.5t39 23.5t112.5 -6q12 53 37 113l-94 -7q-10 0 18.5 31t34.5 30t68 -5q70 125 196 221q70 53 172.5 88t185.5 35t144 -27q66 -33 65 -80q0 -25 -27.5 -68.5t-33.5 -66.5q-8 -8 -29 -8q23 39 23 90t-19 82q-27 47 -108.5 47t-124.5 -24 q-90 -33 -177 -110t-151 -181h129l293 4q12 0 -17.5 -30t-39.5 -30q-41 4 -185.5 7.5t-203.5 1.5q-29 -55 -45 -113l82 -2q147 0 295 6q12 0 -18 -30.5t-40 -28.5q-86 8 -241 8h-89q-4 -31 -4 -78t27 -100q57 -117 213 -117q94 0 192 53q147 80 236 211q10 16 16.5 3 t1.5 -21q-98 -158 -260 -238q-106 -53 -219 -53q-201 0 -274 131q-41 68 -41 158q0 25 4 51l-166 -6q-2 0 -2 5z" />
<glyph unicode="&#x2122;" horiz-adv-x="1736" d="M498 1108q0 29 47 29h524q12 0 12 -6.5t-7 -18.5t-35.5 -16t-90.5 -6q-137 -4 -147 -25q-35 -72 -97.5 -261.5t-64.5 -196.5t-26.5 -12t-44 -5t-21.5 6q45 104 160 397q27 53 26 94q-27 0 -42.5 1.5t-35.5 1.5l-139 -5q-18 0 -18 23zM944 590q8 12 75.5 186t76 203 t8.5 63.5t-4 79.5q-2 14 34.5 14.5t38 -5t23.5 -132.5q47 -293 107 -319q41 14 114 123q94 137 139.5 222t55.5 101q14 14 34.5 -1t20.5 -21l-43 -211q-18 -158 -22 -262q-3 -15 -25.5 -23t-41.5 -8t-19 16q0 10 8 41t26.5 135.5t26.5 145.5q-63 -96 -134 -174 t-102.5 -100.5t-58.5 -22.5t-49.5 21.5t-40.5 64.5t-27.5 71.5t-22 82t-14.5 57.5q-39 -82 -65.5 -191.5t-32.5 -129t-37.5 -28.5t-41 -9t-7.5 10z" />
<glyph unicode="&#x25fc;" horiz-adv-x="542" d="M0 0v543h543v-543h-543z" />
<glyph unicode="&#xfb01;" horiz-adv-x="763" d="M-616 -337q0 9 2 20.5t4 20.5t8 27.5t8 25.5t11.5 30t12.5 31t10 10t11 -4t-5 -27.5t-9 -50.5t10 -53q45 -102 203 -103q57 0 110 29q199 104 349 479q39 98 83 219t70 189h-47q-2 0 -45 -6l-4 2q4 20 39 38.5t57 18.5h25q76 184 209 408q174 285 415 284q27 0 49.5 -16 t20.5 -45l-6 -74q0 -6 -7 -6t-7 2q-8 49 -62 68q-25 10 -53 10q-154 0 -285 -229q-24 -44 -180 -402l184 -2q141 0 232 33q14 6 16 0t-14.5 -24.5t-161.5 -303.5q-72 -129 -72 -180q0 -29 29 -29q70 0 278 248q6 -6 6.5 -19.5t-48 -69.5t-84 -95t-104.5 -81t-126 -42t-57 39 q0 37 20 82q14 33 164 348q14 31 19 61q-86 -20 -175.5 -20t-128.5 2q-121 -303 -163.5 -396.5t-81.5 -163t-97.5 -147.5t-119 -133t-140.5 -92t-162 -37q-170 0 -206 103q-4 14 -4 23zM813 836.5q0 23.5 28.5 42t50 18.5t34 -17.5t12.5 -27.5t-5 -26.5t-28.5 -32t-45 -15.5 t-34 17.5t-12.5 41z" />
<glyph unicode="&#xfb02;" horiz-adv-x="806" d="M-616 -337q0 9 2 20.5t4 20.5t8 27.5t8 25.5t11.5 30t12.5 31t10 10t11 -4t-5 -27.5t-9 -50.5t10 -53q45 -102 203 -103q57 0 110 29q199 104 349 479q39 98 83 219t70 189h-47q-2 0 -45 -6l-4 2q4 20 39 38.5t57 18.5h25q76 184 209 408q174 285 415 284q27 0 49.5 -16 t20.5 -45l-2 -33q18 8 84.5 53t107.5 45q53 -2 54 -75q0 -66 -113 -258q-59 -104 -162.5 -232.5t-109.5 -136.5q-172 -219 -279 -317q-23 -72 -22 -97q0 -88 73 -88q12 0 29 2q82 14 272 250q18 -18 -22 -67q-178 -240 -316 -240q-109 0 -108 102q0 109 147 394l80.5 157.5 t91.5 181.5q96 188 170 297q-20 61 -108 62q-156 0 -287 -229q-25 -43 -180 -402h147q41 0 60 4q0 -14 -31 -26q-57 -31 -170 -31h-29q-121 -303 -163.5 -396.5t-81.5 -163t-97.5 -147.5t-119 -133t-140.5 -92t-162 -37q-170 0 -206 103q-4 14 -4 23zM584 297 q100 94 237 283q176 233 205 283t55.5 98.5t44 91.5t26.5 76.5t9 54t-16.5 20.5t-57.5 -39q-90 -94 -256 -403q-61 -111 -143 -267.5t-104 -197.5z" />
<glyph unicode="&#xfb03;" horiz-adv-x="1138" d="M-616 -337q0 9 2 20.5t4 20.5t8 27.5t8 25.5t11.5 30t12.5 31t10 10t11 -4t-5 -27.5t-9 -50.5t10 -53q45 -102 203 -103q57 0 110 29q199 104 349 479q39 98 83 219t70 189q-49 0 -92 -6l-4 2q4 20 39 38.5t57 18.5h25q76 184 209 408q164 270 436 270q27 0 49.5 -16.5 t19.5 -44.5l-4 -46q127 121 287 121q27 0 49.5 -16t20.5 -45l-6 -74q0 -6 -7.5 -6t-7.5 2q-8 49 -61 68q-25 10 -53 10q-154 0 -285 -229q-35 -61 -184 -406h83.5t192.5 10t145.5 25.5t18.5 -0.5q0 -8 -9.5 -19.5t-166.5 -308.5q-70 -131 -70 -180q0 -29 29 -29 q63 0 229 197l45 51q25 -25 -121 -180q-39 -43 -107.5 -85t-124.5 -42t-56 39q0 37 20 82q53 119 62.5 136t58.5 124.5t54 118t0 12.5t-23.5 4t-51.5 2q-70 0 -229 -8q-164 -414 -223.5 -520.5t-117.5 -184.5t-118.5 -133t-140.5 -92t-181.5 -37t-156.5 55q-94 -55 -197 -55 q-170 0 -206 103q-4 14 -4 23zM-137 -362q59 -47 134 -47.5t136 28.5q199 104 348 479q39 98 83 219t71 189h-275q-104 -266 -174 -412q-147 -319 -323 -456zM381 559h278q76 184 209 408q53 86 111 147q-8 51 -74 74q-29 8 -62.5 8t-80.5 -20q-104 -45 -201 -215 q-37 -68 -180 -402zM1192 836q0 25 27.5 43t49 18t34 -17.5t12.5 -27.5q0 -37 -27 -53.5t-47 -16.5q-49 0 -49 54z" />
<glyph unicode="&#xfb04;" horiz-adv-x="1183" d="M-616 -337q0 9 2 20.5t4 20.5t8 27.5t8 25.5t11.5 30t12.5 31t10 10t11 -4t-5 -27.5t-9 -50.5t10 -53q45 -102 203 -103q57 0 110 29q199 104 349 479q39 98 83 219t70 189h-47q-2 0 -45 -6l-4 2q4 20 39 38.5t57 18.5h25q76 184 209 408q174 285 415 284q27 0 49.5 -16 t20.5 -45l-6 -74q0 -6 -7 -6t-7 2q-8 49 -62 68q-25 10 -53 10q-154 0 -285 -229q-25 -43 -180 -402h276q106 229 211 408q174 285 416 284q27 0 49.5 -16t20.5 -45l-4 -37l92 57q67 45 108 45q51 -2 52 -73q0 -68 -113 -260q-59 -104 -162.5 -232.5t-109.5 -136.5 q-172 -219 -277 -317q-25 -63 -25 -97q0 -88 74 -88q12 0 29 2q86 16 274 250q4 -4 4 -17.5t-53 -80t-80 -92.5q-117 -117 -211 -117q-109 0 -108 100q0 63 53 189.5t85 186.5t77 149.5t72.5 143.5t66.5 128q76 145 131 231q-23 66 -110 66q-154 0 -285 -229 q-25 -43 -180 -402h147q41 0 60 4q0 -14 -31 -26q-57 -31 -170 -31h-29q-121 -303 -164 -396.5t-82 -163t-97 -147.5t-118.5 -133t-140.5 -92t-182.5 -37t-155.5 55q-98 -55 -197 -55q-170 0 -206 103q-4 14 -4 23zM-137 -362q57 -45 134 -45.5t136 26.5q190 98 338 455 q35 82 78 202q45 129 84 228l-275 2q-121 -303 -172 -412q-147 -319 -323 -456zM961 297q113 106 237 283q92 123 106.5 143t52.5 73.5t56.5 85t45 80t45 91.5t27.5 76.5t9 54t-16 20.5q-51 0 -181 -209q-102 -162 -231 -409.5t-151 -288.5z" />
</font>
</defs>
</svg>
